<?xml version="1.0" encoding="UTF-8" standalone="no"?>
<!DOCTYPE svg PUBLIC "-//W3C//DTD SVG 1.1//EN"
 "http://www.w3.org/Graphics/SVG/1.1/DTD/svg11.dtd">
<!-- Generated by graphviz version 14.1.2 (20260124.0452)
 -->
<!-- Title: G Pages: 1 -->
<svg width="1389pt" height="1457pt"
 viewBox="0.00 0.00 1389.00 1457.00" xmlns="http://www.w3.org/2000/svg" xmlns:xlink="http://www.w3.org/1999/xlink">
<g id="graph0" class="graph" transform="scale(1 1) rotate(0) translate(21.6 1435.79)">
<title>G</title>
<polygon fill="#111111" stroke="none" points="-21.6,21.6 -21.6,-1435.79 1367.6,-1435.79 1367.6,21.6 -21.6,21.6"/>
<!-- ../shared/stakes.js -->
<g id="node1" class="node">
<title>../shared/stakes.js</title>
<path fill="none" stroke="#cfffac" d="M589.33,-1250.19C589.33,-1250.19 480.42,-1250.19 480.42,-1250.19 476.46,-1250.19 472.5,-1246.23 472.5,-1242.28 472.5,-1242.28 472.5,-1234.36 472.5,-1234.36 472.5,-1230.4 476.46,-1226.44 480.42,-1226.44 480.42,-1226.44 589.33,-1226.44 589.33,-1226.44 593.29,-1226.44 597.25,-1230.4 597.25,-1234.36 597.25,-1234.36 597.25,-1242.28 597.25,-1242.28 597.25,-1246.23 593.29,-1250.19 589.33,-1250.19"/>
<text xml:space="preserve" text-anchor="middle" x="534.88" y="-1232.89" font-family="Arial" font-size="14.00" fill="#cfffac">../shared/stakes.js</text>
</g>
<!-- ../shared/tournament.js -->
<g id="node2" class="node">
<title>../shared/tournament.js</title>
<path fill="none" stroke="#cfffac" d="M1235.83,-524.19C1235.83,-524.19 1096.92,-524.19 1096.92,-524.19 1092.96,-524.19 1089,-520.23 1089,-516.28 1089,-516.28 1089,-508.36 1089,-508.36 1089,-504.4 1092.96,-500.44 1096.92,-500.44 1096.92,-500.44 1235.83,-500.44 1235.83,-500.44 1239.79,-500.44 1243.75,-504.4 1243.75,-508.36 1243.75,-508.36 1243.75,-516.28 1243.75,-516.28 1243.75,-520.23 1239.79,-524.19 1235.83,-524.19"/>
<text xml:space="preserve" text-anchor="middle" x="1166.38" y="-506.89" font-family="Arial" font-size="14.00" fill="#cfffac">../shared/tournament.js</text>
</g>
<!-- game&#45;eviction.js -->
<g id="node3" class="node">
<title>game&#45;eviction.js</title>
<path fill="none" stroke="#cfffac" d="M217.96,-1414.19C217.96,-1414.19 119.54,-1414.19 119.54,-1414.19 115.58,-1414.19 111.62,-1410.23 111.62,-1406.28 111.62,-1406.28 111.62,-1398.36 111.62,-1398.36 111.62,-1394.4 115.58,-1390.44 119.54,-1390.44 119.54,-1390.44 217.96,-1390.44 217.96,-1390.44 221.92,-1390.44 225.88,-1394.4 225.88,-1398.36 225.88,-1398.36 225.88,-1406.28 225.88,-1406.28 225.88,-1410.23 221.92,-1414.19 217.96,-1414.19"/>
<text xml:space="preserve" text-anchor="middle" x="168.75" y="-1396.89" font-family="Arial" font-size="14.00" fill="#cfffac">game&#45;eviction.js</text>
</g>
<!-- http&#45;error.js -->
<g id="node4" class="node">
<title>http&#45;error.js</title>
<path fill="none" stroke="#cfffac" d="M377.21,-1334.19C377.21,-1334.19 308.79,-1334.19 308.79,-1334.19 304.83,-1334.19 300.88,-1330.23 300.88,-1326.28 300.88,-1326.28 300.88,-1318.36 300.88,-1318.36 300.88,-1314.4 304.83,-1310.44 308.79,-1310.44 308.79,-1310.44 377.21,-1310.44 377.21,-1310.44 381.17,-1310.44 385.12,-1314.4 385.12,-1318.36 385.12,-1318.36 385.12,-1326.28 385.12,-1326.28 385.12,-1330.23 381.17,-1334.19 377.21,-1334.19"/>
<text xml:space="preserve" text-anchor="middle" x="343" y="-1316.89" font-family="Arial" font-size="14.00" fill="#cfffac">http&#45;error.js</text>
</g>
<!-- http&#45;routes.js -->
<g id="node5" class="node">
<title>http&#45;routes.js</title>
<path fill="none" stroke="#c6c5fe" d="M207.83,-1134.19C207.83,-1134.19 129.67,-1134.19 129.67,-1134.19 125.71,-1134.19 121.75,-1130.23 121.75,-1126.28 121.75,-1126.28 121.75,-1118.36 121.75,-1118.36 121.75,-1114.4 125.71,-1110.44 129.67,-1110.44 129.67,-1110.44 207.83,-1110.44 207.83,-1110.44 211.79,-1110.44 215.75,-1114.4 215.75,-1118.36 215.75,-1118.36 215.75,-1126.28 215.75,-1126.28 215.75,-1130.23 211.79,-1134.19 207.83,-1134.19"/>
<text xml:space="preserve" text-anchor="middle" x="168.75" y="-1116.89" font-family="Arial" font-size="14.00" fill="#c6c5fe">http&#45;routes.js</text>
</g>
<!-- http&#45;routes.js&#45;&gt;../shared/tournament.js -->
<g id="edge1" class="edge">
<title>http&#45;routes.js&#45;&gt;../shared/tournament.js</title>
<path fill="none" stroke="#757575" d="M215.85,-1129.38C264.59,-1135.52 343.51,-1141.67 410.25,-1129.32 619,-1090.67 670.34,-1060.82 856.25,-958.32 951.84,-905.61 992.07,-901.89 1053,-811.32 1088.38,-758.72 1067.32,-732.88 1089,-673.32 1107.66,-622.05 1136.85,-565.02 1153.21,-534.49"/>
<polygon fill="#757575" stroke="#757575" points="1156.22,-536.29 1157.9,-525.83 1150.06,-532.96 1156.22,-536.29"/>
</g>
<!-- http&#45;routes.js&#45;&gt;http&#45;error.js -->
<g id="edge2" class="edge">
<title>http&#45;routes.js&#45;&gt;http&#45;error.js</title>
<path fill="none" stroke="#757575" d="M173.48,-1134.37C184.04,-1166.48 217.22,-1254.8 275.75,-1301.32 280.01,-1304.7 284.83,-1307.55 289.88,-1309.94"/>
<polygon fill="#757575" stroke="#757575" points="288.46,-1313.14 299.04,-1313.66 291.1,-1306.66 288.46,-1313.14"/>
</g>
<!-- logger.js -->
<g id="node6" class="node">
<title>logger.js</title>
<path fill="none" stroke="#cfffac" d="M1338.08,-1094.19C1338.08,-1094.19 1287.67,-1094.19 1287.67,-1094.19 1283.71,-1094.19 1279.75,-1090.23 1279.75,-1086.28 1279.75,-1086.28 1279.75,-1078.36 1279.75,-1078.36 1279.75,-1074.4 1283.71,-1070.44 1287.67,-1070.44 1287.67,-1070.44 1338.08,-1070.44 1338.08,-1070.44 1342.04,-1070.44 1346,-1074.4 1346,-1078.36 1346,-1078.36 1346,-1086.28 1346,-1086.28 1346,-1090.23 1342.04,-1094.19 1338.08,-1094.19"/>
<text xml:space="preserve" text-anchor="middle" x="1312.88" y="-1076.89" font-family="Arial" font-size="14.00" fill="#cfffac">logger.js</text>
</g>
<!-- http&#45;routes.js&#45;&gt;logger.js -->
<g id="edge3" class="edge">
<title>http&#45;routes.js&#45;&gt;logger.js</title>
<path fill="none" stroke="#757575" d="M216.1,-1133.64C234.62,-1138.06 256.16,-1143.07 275.75,-1147.32 390.04,-1172.08 416.93,-1198.32 533.88,-1198.32 533.88,-1198.32 533.88,-1198.32 973.62,-1198.32 1093.14,-1198.32 1224.19,-1132.71 1281.84,-1100.18"/>
<polygon fill="#757575" stroke="#757575" points="1283.48,-1103.27 1290.42,-1095.26 1280,-1097.2 1283.48,-1103.27"/>
</g>
<!-- poker/game.js -->
<g id="node7" class="node">
<title>poker/game.js</title>
<path fill="none" stroke="#c6c5fe" d="M385.83,-686.19C385.83,-686.19 300.17,-686.19 300.17,-686.19 296.21,-686.19 292.25,-682.23 292.25,-678.28 292.25,-678.28 292.25,-670.36 292.25,-670.36 292.25,-666.4 296.21,-662.44 300.17,-662.44 300.17,-662.44 385.83,-662.44 385.83,-662.44 389.79,-662.44 393.75,-666.4 393.75,-670.36 393.75,-670.36 393.75,-678.28 393.75,-678.28 393.75,-682.23 389.79,-686.19 385.83,-686.19"/>
<text xml:space="preserve" text-anchor="middle" x="343" y="-668.89" font-family="Arial" font-size="14.00" fill="#c6c5fe">poker/game.js</text>
</g>
<!-- http&#45;routes.js&#45;&gt;poker/game.js -->
<g id="edge4" class="edge">
<title>http&#45;routes.js&#45;&gt;poker/game.js</title>
<path fill="none" stroke="#757575" d="M176.12,-1110.24C189.4,-1084.65 220.45,-1022.86 239.75,-968.32 261.03,-908.15 255.15,-889.72 275.75,-829.32 292.25,-780.93 317.08,-726.41 331.19,-696.65"/>
<polygon fill="#757575" stroke="#757575" points="334.22,-698.42 335.38,-687.89 327.91,-695.4 334.22,-698.42"/>
</g>
<!-- poker/hand&#45;history/index.js -->
<g id="node8" class="node">
<title>poker/hand&#45;history/index.js</title>
<path fill="none" stroke="#c6c5fe" d="M615.58,-666.19C615.58,-666.19 454.17,-666.19 454.17,-666.19 450.21,-666.19 446.25,-662.23 446.25,-658.28 446.25,-658.28 446.25,-650.36 446.25,-650.36 446.25,-646.4 450.21,-642.44 454.17,-642.44 454.17,-642.44 615.58,-642.44 615.58,-642.44 619.54,-642.44 623.5,-646.4 623.5,-650.36 623.5,-650.36 623.5,-658.28 623.5,-658.28 623.5,-662.23 619.54,-666.19 615.58,-666.19"/>
<text xml:space="preserve" text-anchor="middle" x="534.88" y="-648.89" font-family="Arial" font-size="14.00" fill="#c6c5fe">poker/hand&#45;history/index.js</text>
</g>
<!-- http&#45;routes.js&#45;&gt;poker/hand&#45;history/index.js -->
<g id="edge5" class="edge">
<title>http&#45;routes.js&#45;&gt;poker/hand&#45;history/index.js</title>
<path fill="none" stroke="#757575" d="M216.02,-1111.7C285.43,-1095.73 408.63,-1067.17 410.25,-1065.32 462.1,-1006.2 405.82,-780.76 446.25,-713.32 457.13,-695.17 476,-681.4 493.44,-671.74"/>
<polygon fill="#757575" stroke="#757575" points="494.88,-674.94 502.14,-667.23 491.65,-668.73 494.88,-674.94"/>
</g>
<!-- poker/stakes.js -->
<g id="node9" class="node">
<title>poker/stakes.js</title>
<path fill="none" stroke="#c6c5fe" d="M388.08,-1250.19C388.08,-1250.19 297.92,-1250.19 297.92,-1250.19 293.96,-1250.19 290,-1246.23 290,-1242.28 290,-1242.28 290,-1234.36 290,-1234.36 290,-1230.4 293.96,-1226.44 297.92,-1226.44 297.92,-1226.44 388.08,-1226.44 388.08,-1226.44 392.04,-1226.44 396,-1230.4 396,-1234.36 396,-1234.36 396,-1242.28 396,-1242.28 396,-1246.23 392.04,-1250.19 388.08,-1250.19"/>
<text xml:space="preserve" text-anchor="middle" x="343" y="-1232.89" font-family="Arial" font-size="14.00" fill="#c6c5fe">poker/stakes.js</text>
</g>
<!-- http&#45;routes.js&#45;&gt;poker/stakes.js -->
<g id="edge6" class="edge">
<title>http&#45;routes.js&#45;&gt;poker/stakes.js</title>
<path fill="none" stroke="#757575" d="M181.44,-1134.57C199.96,-1153.4 237.83,-1189.64 275.75,-1212.32 281.39,-1215.69 287.54,-1218.78 293.76,-1221.57"/>
<polygon fill="#757575" stroke="#757575" points="292.22,-1224.72 302.79,-1225.37 294.93,-1218.26 292.22,-1224.72"/>
</g>
<!-- rate&#45;limit.js -->
<g id="node10" class="node">
<title>rate&#45;limit.js</title>
<path fill="none" stroke="#c6c5fe" d="M376.08,-1292.19C376.08,-1292.19 309.92,-1292.19 309.92,-1292.19 305.96,-1292.19 302,-1288.23 302,-1284.28 302,-1284.28 302,-1276.36 302,-1276.36 302,-1272.4 305.96,-1268.44 309.92,-1268.44 309.92,-1268.44 376.08,-1268.44 376.08,-1268.44 380.04,-1268.44 384,-1272.4 384,-1276.36 384,-1276.36 384,-1284.28 384,-1284.28 384,-1288.23 380.04,-1292.19 376.08,-1292.19"/>
<text xml:space="preserve" text-anchor="middle" x="343" y="-1274.89" font-family="Arial" font-size="14.00" fill="#c6c5fe">rate&#45;limit.js</text>
</g>
<!-- http&#45;routes.js&#45;&gt;rate&#45;limit.js -->
<g id="edge7" class="edge">
<title>http&#45;routes.js&#45;&gt;rate&#45;limit.js</title>
<path fill="none" stroke="#757575" d="M180.28,-1134.45C194.27,-1150.71 219.58,-1180.63 239.75,-1207.32 256.7,-1229.74 253.14,-1242.62 275.75,-1259.32 280.42,-1262.77 285.68,-1265.66 291.14,-1268.09"/>
<polygon fill="#757575" stroke="#757575" points="289.78,-1271.32 300.37,-1271.66 292.3,-1264.79 289.78,-1271.32"/>
</g>
<!-- static&#45;files.js -->
<g id="node11" class="node">
<title>static&#45;files.js</title>
<path fill="none" stroke="#cfffac" d="M379.83,-1056.19C379.83,-1056.19 306.17,-1056.19 306.17,-1056.19 302.21,-1056.19 298.25,-1052.23 298.25,-1048.28 298.25,-1048.28 298.25,-1040.36 298.25,-1040.36 298.25,-1036.4 302.21,-1032.44 306.17,-1032.44 306.17,-1032.44 379.83,-1032.44 379.83,-1032.44 383.79,-1032.44 387.75,-1036.4 387.75,-1040.36 387.75,-1040.36 387.75,-1048.28 387.75,-1048.28 387.75,-1052.23 383.79,-1056.19 379.83,-1056.19"/>
<text xml:space="preserve" text-anchor="middle" x="343" y="-1038.89" font-family="Arial" font-size="14.00" fill="#cfffac">static&#45;files.js</text>
</g>
<!-- http&#45;routes.js&#45;&gt;static&#45;files.js -->
<g id="edge8" class="edge">
<title>http&#45;routes.js&#45;&gt;static&#45;files.js</title>
<path fill="none" stroke="#757575" d="M193.48,-1109.98C214.79,-1099.07 247.05,-1082.96 275.75,-1070.32 283.05,-1067.1 290.88,-1063.85 298.52,-1060.79"/>
<polygon fill="#757575" stroke="#757575" points="299.67,-1064.1 307.69,-1057.17 297.1,-1057.59 299.67,-1064.1"/>
</g>
<!-- store.js -->
<g id="node12" class="node">
<title>store.js</title>
<path fill="none" stroke="#c6c5fe" d="M364.83,-862.19C364.83,-862.19 321.17,-862.19 321.17,-862.19 317.21,-862.19 313.25,-858.23 313.25,-854.28 313.25,-854.28 313.25,-846.36 313.25,-846.36 313.25,-842.4 317.21,-838.44 321.17,-838.44 321.17,-838.44 364.83,-838.44 364.83,-838.44 368.79,-838.44 372.75,-842.4 372.75,-846.36 372.75,-846.36 372.75,-854.28 372.75,-854.28 372.75,-858.23 368.79,-862.19 364.83,-862.19"/>
<text xml:space="preserve" text-anchor="middle" x="343" y="-844.89" font-family="Arial" font-size="14.00" fill="#c6c5fe">store.js</text>
</g>
<!-- http&#45;routes.js&#45;&gt;store.js -->
<g id="edge9" class="edge">
<title>http&#45;routes.js&#45;&gt;store.js</title>
<path fill="none" stroke="#757575" d="M177.37,-1110.28C204.1,-1068.07 293.81,-926.41 328.32,-871.92"/>
<polygon fill="#757575" stroke="#757575" points="331.07,-874.12 333.46,-863.8 325.15,-870.38 331.07,-874.12"/>
</g>
<!-- user.js -->
<g id="node13" class="node">
<title>user.js</title>
<path fill="none" stroke="#c6c5fe" d="M554.46,-902.19C554.46,-902.19 515.29,-902.19 515.29,-902.19 511.33,-902.19 507.38,-898.23 507.38,-894.28 507.38,-894.28 507.38,-886.36 507.38,-886.36 507.38,-882.4 511.33,-878.44 515.29,-878.44 515.29,-878.44 554.46,-878.44 554.46,-878.44 558.42,-878.44 562.38,-882.4 562.38,-886.36 562.38,-886.36 562.38,-894.28 562.38,-894.28 562.38,-898.23 558.42,-902.19 554.46,-902.19"/>
<text xml:space="preserve" text-anchor="middle" x="534.88" y="-884.89" font-family="Arial" font-size="14.00" fill="#c6c5fe">user.js</text>
</g>
<!-- http&#45;routes.js&#45;&gt;user.js -->
<g id="edge10" class="edge">
<title>http&#45;routes.js&#45;&gt;user.js</title>
<path fill="none" stroke="#757575" d="M216.24,-1129.38C267.81,-1134.71 351.49,-1135.73 410.25,-1098.32 478.9,-1054.6 514.45,-957.93 527.68,-913.49"/>
<polygon fill="#757575" stroke="#757575" points="530.97,-914.69 530.35,-904.12 524.24,-912.77 530.97,-914.69"/>
</g>
<!-- poker/game.js&#45;&gt;../shared/tournament.js -->
<g id="edge36" class="edge">
<title>poker/game.js&#45;&gt;../shared/tournament.js</title>
<path fill="none" stroke="#757575" d="M349.24,-662.01C361.6,-634.64 395.41,-568.87 446.25,-539.32 661.71,-414.07 978.03,-467.62 1107.2,-497.37"/>
<polygon fill="#757575" stroke="#757575" points="1106.37,-500.77 1116.9,-499.65 1107.97,-493.95 1106.37,-500.77"/>
</g>
<!-- poker/game.js&#45;&gt;logger.js -->
<g id="edge38" class="edge">
<title>poker/game.js&#45;&gt;logger.js</title>
<path fill="none" stroke="#757575" d="M350.1,-661.96C371.48,-618.71 441.99,-476.49 446.25,-473.32 558.76,-389.4 616.51,-416.32 756.88,-416.32 756.88,-416.32 756.88,-416.32 973.62,-416.32 1098.22,-416.32 1162.78,-396.61 1243.75,-491.32 1281.28,-535.21 1305.23,-953.56 1310.69,-1058.52"/>
<polygon fill="#757575" stroke="#757575" points="1307.19,-1058.65 1311.19,-1068.46 1314.18,-1058.29 1307.19,-1058.65"/>
</g>
<!-- poker/game.js&#45;&gt;poker/hand&#45;history/index.js -->
<g id="edge43" class="edge">
<title>poker/game.js&#45;&gt;poker/hand&#45;history/index.js</title>
<path fill="none" stroke="#757575" d="M393.89,-669.06C406.46,-667.74 420.4,-666.27 434.48,-664.79"/>
<polygon fill="#757575" stroke="#757575" points="434.68,-668.28 444.26,-663.76 433.95,-661.32 434.68,-668.28"/>
</g>
<!-- id.js -->
<g id="node14" class="node">
<title>id.js</title>
<path fill="none" stroke="#cfffac" d="M776.96,-902.19C776.96,-902.19 738.79,-902.19 738.79,-902.19 734.83,-902.19 730.88,-898.23 730.88,-894.28 730.88,-894.28 730.88,-886.36 730.88,-886.36 730.88,-882.4 734.83,-878.44 738.79,-878.44 738.79,-878.44 776.96,-878.44 776.96,-878.44 780.92,-878.44 784.88,-882.4 784.88,-886.36 784.88,-886.36 784.88,-894.28 784.88,-894.28 784.88,-898.23 780.92,-902.19 776.96,-902.19"/>
<text xml:space="preserve" text-anchor="middle" x="757.88" y="-884.89" font-family="Arial" font-size="14.00" fill="#cfffac">id.js</text>
</g>
<!-- poker/game.js&#45;&gt;id.js -->
<g id="edge37" class="edge">
<title>poker/game.js&#45;&gt;id.js</title>
<path fill="none" stroke="#757575" d="M351.72,-686.53C366.99,-709.71 403.29,-760.26 446.25,-788.32 534.65,-846.04 658.58,-873.73 719.74,-884.56"/>
<polygon fill="#757575" stroke="#757575" points="718.82,-887.95 729.27,-886.19 720,-881.05 718.82,-887.95"/>
</g>
<!-- poker/actions.js -->
<g id="node20" class="node">
<title>poker/actions.js</title>
<path fill="none" stroke="#c6c5fe" d="M581.83,-345.19C581.83,-345.19 487.92,-345.19 487.92,-345.19 483.96,-345.19 480,-341.23 480,-337.28 480,-337.28 480,-329.36 480,-329.36 480,-325.4 483.96,-321.44 487.92,-321.44 487.92,-321.44 581.83,-321.44 581.83,-321.44 585.79,-321.44 589.75,-325.4 589.75,-329.36 589.75,-329.36 589.75,-337.28 589.75,-337.28 589.75,-341.23 585.79,-345.19 581.83,-345.19"/>
<text xml:space="preserve" text-anchor="middle" x="534.88" y="-327.89" font-family="Arial" font-size="14.00" fill="#c6c5fe">poker/actions.js</text>
</g>
<!-- poker/game.js&#45;&gt;poker/actions.js -->
<g id="edge39" class="edge">
<title>poker/game.js&#45;&gt;poker/actions.js</title>
<path fill="none" stroke="#757575" d="M349.59,-662.19C361.84,-635.31 391.44,-568.46 410.25,-510.32 430.82,-446.73 401.37,-413.84 446.25,-364.32 452.64,-357.27 460.73,-351.82 469.4,-347.62"/>
<polygon fill="#757575" stroke="#757575" points="470.54,-350.94 478.38,-343.81 467.81,-344.49 470.54,-350.94"/>
</g>
<!-- poker/betting.js -->
<g id="node21" class="node">
<title>poker/betting.js</title>
<path fill="none" stroke="#c6c5fe" d="M1018.46,-312.19C1018.46,-312.19 926.79,-312.19 926.79,-312.19 922.83,-312.19 918.88,-308.23 918.88,-304.28 918.88,-304.28 918.88,-296.36 918.88,-296.36 918.88,-292.4 922.83,-288.44 926.79,-288.44 926.79,-288.44 1018.46,-288.44 1018.46,-288.44 1022.42,-288.44 1026.38,-292.4 1026.38,-296.36 1026.38,-296.36 1026.38,-304.28 1026.38,-304.28 1026.38,-308.23 1022.42,-312.19 1018.46,-312.19"/>
<text xml:space="preserve" text-anchor="middle" x="972.62" y="-294.89" font-family="Arial" font-size="14.00" fill="#c6c5fe">poker/betting.js</text>
</g>
<!-- poker/game.js&#45;&gt;poker/betting.js -->
<g id="edge40" class="edge">
<title>poker/game.js&#45;&gt;poker/betting.js</title>
<path fill="none" stroke="#757575" d="M351.07,-662.03C364.24,-638.74 392.75,-586.29 410.25,-539.32 432.23,-480.32 400.31,-445.36 446.25,-402.32 450.48,-398.35 768.25,-338.42 907.47,-312.32"/>
<polygon fill="#757575" stroke="#757575" points="907.71,-315.83 916.89,-310.55 906.42,-308.95 907.71,-315.83"/>
</g>
<!-- poker/deck.js -->
<g id="node23" class="node">
<title>poker/deck.js</title>
<path fill="none" stroke="#c6c5fe" d="M1012.46,-371.19C1012.46,-371.19 932.79,-371.19 932.79,-371.19 928.83,-371.19 924.88,-367.23 924.88,-363.28 924.88,-363.28 924.88,-355.36 924.88,-355.36 924.88,-351.4 928.83,-347.44 932.79,-347.44 932.79,-347.44 1012.46,-347.44 1012.46,-347.44 1016.42,-347.44 1020.38,-351.4 1020.38,-355.36 1020.38,-355.36 1020.38,-363.28 1020.38,-363.28 1020.38,-367.23 1016.42,-371.19 1012.46,-371.19"/>
<text xml:space="preserve" text-anchor="middle" x="972.62" y="-353.89" font-family="Arial" font-size="14.00" fill="#c6c5fe">poker/deck.js</text>
</g>
<!-- poker/game.js&#45;&gt;poker/deck.js -->
<g id="edge41" class="edge">
<title>poker/game.js&#45;&gt;poker/deck.js</title>
<path fill="none" stroke="#757575" d="M355.27,-686.47C372.84,-704.59 408.67,-738.39 446.25,-755.32 457.22,-760.26 647.51,-792.26 659.5,-793.32 746.6,-801.02 788.6,-848.72 856.25,-793.32 919.03,-741.9 872.16,-692.94 892.25,-614.32 914.38,-527.7 948.2,-426.89 963.55,-382.42"/>
<polygon fill="#757575" stroke="#757575" points="966.82,-383.68 966.79,-373.09 960.2,-381.39 966.82,-383.68"/>
</g>
<!-- poker/game&#45;tick.js -->
<g id="node24" class="node">
<title>poker/game&#45;tick.js</title>
<path fill="none" stroke="#c6c5fe" d="M813.08,-194.19C813.08,-194.19 702.67,-194.19 702.67,-194.19 698.71,-194.19 694.75,-190.23 694.75,-186.28 694.75,-186.28 694.75,-178.36 694.75,-178.36 694.75,-174.4 698.71,-170.44 702.67,-170.44 702.67,-170.44 813.08,-170.44 813.08,-170.44 817.04,-170.44 821,-174.4 821,-178.36 821,-178.36 821,-186.28 821,-186.28 821,-190.23 817.04,-194.19 813.08,-194.19"/>
<text xml:space="preserve" text-anchor="middle" x="757.88" y="-176.89" font-family="Arial" font-size="14.00" fill="#c6c5fe">poker/game&#45;tick.js</text>
</g>
<!-- poker/game.js&#45;&gt;poker/game&#45;tick.js -->
<g id="edge42" class="edge">
<title>poker/game.js&#45;&gt;poker/game&#45;tick.js</title>
<path fill="none" stroke="#757575" d="M343.63,-662.07C342.78,-611.52 346.35,-416.93 446.25,-312.32 503.59,-252.27 555.64,-301.16 623.5,-253.32 644.72,-238.36 637.77,-221.52 659.5,-207.32 666.84,-202.52 675.06,-198.64 683.52,-195.5"/>
<polygon fill="#757575" stroke="#757575" points="684.5,-198.86 692.88,-192.39 682.29,-192.22 684.5,-198.86"/>
</g>
<!-- poker/seat.js -->
<g id="node25" class="node">
<title>poker/seat.js</title>
<path fill="none" stroke="#cfffac" d="M1204.71,-706.19C1204.71,-706.19 1128.04,-706.19 1128.04,-706.19 1124.08,-706.19 1120.12,-702.23 1120.12,-698.28 1120.12,-698.28 1120.12,-690.36 1120.12,-690.36 1120.12,-686.4 1124.08,-682.44 1128.04,-682.44 1128.04,-682.44 1204.71,-682.44 1204.71,-682.44 1208.67,-682.44 1212.62,-686.4 1212.62,-690.36 1212.62,-690.36 1212.62,-698.28 1212.62,-698.28 1212.62,-702.23 1208.67,-706.19 1204.71,-706.19"/>
<text xml:space="preserve" text-anchor="middle" x="1166.38" y="-688.89" font-family="Arial" font-size="14.00" fill="#cfffac">poker/seat.js</text>
</g>
<!-- poker/game.js&#45;&gt;poker/seat.js -->
<g id="edge45" class="edge">
<title>poker/game.js&#45;&gt;poker/seat.js</title>
<path fill="none" stroke="#757575" d="M394.14,-675.54C538.67,-679.06 955.48,-689.21 1108.32,-692.93"/>
<polygon fill="#757575" stroke="#757575" points="1108.12,-696.42 1118.2,-693.17 1108.29,-689.43 1108.12,-696.42"/>
</g>
<!-- poker/tournament&#45;summary.js -->
<g id="node26" class="node">
<title>poker/tournament&#45;summary.js</title>
<path fill="none" stroke="#c6c5fe" d="M848.33,-544.19C848.33,-544.19 667.42,-544.19 667.42,-544.19 663.46,-544.19 659.5,-540.23 659.5,-536.28 659.5,-536.28 659.5,-528.36 659.5,-528.36 659.5,-524.4 663.46,-520.44 667.42,-520.44 667.42,-520.44 848.33,-520.44 848.33,-520.44 852.29,-520.44 856.25,-524.4 856.25,-528.36 856.25,-528.36 856.25,-536.28 856.25,-536.28 856.25,-540.23 852.29,-544.19 848.33,-544.19"/>
<text xml:space="preserve" text-anchor="middle" x="757.88" y="-526.89" font-family="Arial" font-size="14.00" fill="#c6c5fe">poker/tournament&#45;summary.js</text>
</g>
<!-- poker/game.js&#45;&gt;poker/tournament&#45;summary.js -->
<g id="edge47" class="edge">
<title>poker/game.js&#45;&gt;poker/tournament&#45;summary.js</title>
<path fill="none" stroke="#757575" d="M354.91,-662.05C372.27,-643.37 408.14,-608.08 446.25,-590.32 509.44,-560.86 586.45,-546.36 647.98,-539.22"/>
<polygon fill="#757575" stroke="#757575" points="648.22,-542.71 657.78,-538.14 647.45,-535.76 648.22,-542.71"/>
</g>
<!-- poker/hand&#45;rankings.js -->
<g id="node30" class="node">
<title>poker/hand&#45;rankings.js</title>
<path fill="none" stroke="#c6c5fe" d="M826.21,-586.19C826.21,-586.19 689.54,-586.19 689.54,-586.19 685.58,-586.19 681.62,-582.23 681.62,-578.28 681.62,-578.28 681.62,-570.36 681.62,-570.36 681.62,-566.4 685.58,-562.44 689.54,-562.44 689.54,-562.44 826.21,-562.44 826.21,-562.44 830.17,-562.44 834.12,-566.4 834.12,-570.36 834.12,-570.36 834.12,-578.28 834.12,-578.28 834.12,-582.23 830.17,-586.19 826.21,-586.19"/>
<text xml:space="preserve" text-anchor="middle" x="757.88" y="-568.89" font-family="Arial" font-size="14.00" fill="#c6c5fe">poker/hand&#45;rankings.js</text>
</g>
<!-- poker/game.js&#45;&gt;poker/hand&#45;rankings.js -->
<g id="edge44" class="edge">
<title>poker/game.js&#45;&gt;poker/hand&#45;rankings.js</title>
<path fill="none" stroke="#757575" d="M370.41,-662.08C390.77,-653.05 419.82,-641.05 446.25,-633.32 520.55,-611.59 607.26,-595.89 670.16,-586.18"/>
<polygon fill="#757575" stroke="#757575" points="670.37,-589.69 679.72,-584.72 669.31,-582.77 670.37,-589.69"/>
</g>
<!-- poker/showdown.js -->
<g id="node31" class="node">
<title>poker/showdown.js</title>
<path fill="none" stroke="#c6c5fe" d="M592.33,-746.19C592.33,-746.19 477.42,-746.19 477.42,-746.19 473.46,-746.19 469.5,-742.23 469.5,-738.28 469.5,-738.28 469.5,-730.36 469.5,-730.36 469.5,-726.4 473.46,-722.44 477.42,-722.44 477.42,-722.44 592.33,-722.44 592.33,-722.44 596.29,-722.44 600.25,-726.4 600.25,-730.36 600.25,-730.36 600.25,-738.28 600.25,-738.28 600.25,-742.23 596.29,-746.19 592.33,-746.19"/>
<text xml:space="preserve" text-anchor="middle" x="534.88" y="-728.89" font-family="Arial" font-size="14.00" fill="#c6c5fe">poker/showdown.js</text>
</g>
<!-- poker/game.js&#45;&gt;poker/showdown.js -->
<g id="edge46" class="edge">
<title>poker/game.js&#45;&gt;poker/showdown.js</title>
<path fill="none" stroke="#757575" d="M379.87,-686.56C399.44,-693.16 424.12,-701.36 446.25,-708.32 457.38,-711.82 469.34,-715.45 480.74,-718.85"/>
<polygon fill="#757575" stroke="#757575" points="479.42,-722.11 490,-721.6 481.41,-715.4 479.42,-722.11"/>
</g>
<!-- poker/hand&#45;history/index.js&#45;&gt;poker/hand&#45;rankings.js -->
<g id="edge50" class="edge">
<title>poker/hand&#45;history/index.js&#45;&gt;poker/hand&#45;rankings.js</title>
<path fill="none" stroke="#757575" d="M588.82,-642C600.64,-638.17 612.82,-633.33 623.5,-627.32 642.15,-616.81 640.41,-605 659.5,-595.32 663.15,-593.47 666.95,-591.78 670.85,-590.24"/>
<polygon fill="#757575" stroke="#757575" points="671.68,-593.66 679.93,-587.01 669.34,-587.06 671.68,-593.66"/>
</g>
<!-- poker/hand&#45;history/io.js -->
<g id="node32" class="node">
<title>poker/hand&#45;history/io.js</title>
<path fill="none" stroke="#cfffac" d="M1042.46,-647.19C1042.46,-647.19 902.79,-647.19 902.79,-647.19 898.83,-647.19 894.88,-643.23 894.88,-639.28 894.88,-639.28 894.88,-631.36 894.88,-631.36 894.88,-627.4 898.83,-623.44 902.79,-623.44 902.79,-623.44 1042.46,-623.44 1042.46,-623.44 1046.42,-623.44 1050.38,-627.4 1050.38,-631.36 1050.38,-631.36 1050.38,-639.28 1050.38,-639.28 1050.38,-643.23 1046.42,-647.19 1042.46,-647.19"/>
<text xml:space="preserve" text-anchor="middle" x="972.62" y="-629.89" font-family="Arial" font-size="14.00" fill="#cfffac">poker/hand&#45;history/io.js</text>
</g>
<!-- poker/hand&#45;history/index.js&#45;&gt;poker/hand&#45;history/io.js -->
<g id="edge48" class="edge">
<title>poker/hand&#45;history/index.js&#45;&gt;poker/hand&#45;history/io.js</title>
<path fill="none" stroke="#757575" d="M623.79,-650.48C699.23,-647.19 807.41,-642.48 883.04,-639.18"/>
<polygon fill="#757575" stroke="#757575" points="883.07,-642.68 892.91,-638.75 882.76,-635.69 883.07,-642.68"/>
</g>
<!-- poker/hand&#45;history/view.js -->
<g id="node33" class="node">
<title>poker/hand&#45;history/view.js</title>
<path fill="none" stroke="#c6c5fe" d="M835.58,-628.19C835.58,-628.19 680.17,-628.19 680.17,-628.19 676.21,-628.19 672.25,-624.23 672.25,-620.28 672.25,-620.28 672.25,-612.36 672.25,-612.36 672.25,-608.4 676.21,-604.44 680.17,-604.44 680.17,-604.44 835.58,-604.44 835.58,-604.44 839.54,-604.44 843.5,-608.4 843.5,-612.36 843.5,-612.36 843.5,-620.28 843.5,-620.28 843.5,-624.23 839.54,-628.19 835.58,-628.19"/>
<text xml:space="preserve" text-anchor="middle" x="757.88" y="-610.89" font-family="Arial" font-size="14.00" fill="#c6c5fe">poker/hand&#45;history/view.js</text>
</g>
<!-- poker/hand&#45;history/index.js&#45;&gt;poker/hand&#45;history/view.js -->
<g id="edge49" class="edge">
<title>poker/hand&#45;history/index.js&#45;&gt;poker/hand&#45;history/view.js</title>
<path fill="none" stroke="#757575" d="M607.63,-641.98C628.77,-638.34 652.08,-634.34 673.87,-630.59"/>
<polygon fill="#757575" stroke="#757575" points="674.35,-634.06 683.61,-628.91 673.16,-627.16 674.35,-634.06"/>
</g>
<!-- poker/stakes.js&#45;&gt;../shared/stakes.js -->
<g id="edge70" class="edge">
<title>poker/stakes.js&#45;&gt;../shared/stakes.js</title>
<path fill="none" stroke="#757575" d="M396.39,-1238.32C416.3,-1238.32 439.36,-1238.32 460.84,-1238.32"/>
<polygon fill="#757575" stroke="#757575" points="460.72,-1241.82 470.72,-1238.32 460.72,-1234.82 460.72,-1241.82"/>
</g>
<!-- rate&#45;limit.js&#45;&gt;logger.js -->
<g id="edge74" class="edge">
<title>rate&#45;limit.js&#45;&gt;logger.js</title>
<path fill="none" stroke="#757575" d="M384.44,-1280.15C458.37,-1279.87 620.32,-1279.32 756.88,-1279.32 756.88,-1279.32 756.88,-1279.32 973.62,-1279.32 1097.32,-1279.32 1146.46,-1288.7 1243.75,-1212.32 1278.63,-1184.93 1297.57,-1134.71 1306.12,-1105.35"/>
<polygon fill="#757575" stroke="#757575" points="1309.42,-1106.54 1308.68,-1095.97 1302.67,-1104.7 1309.42,-1106.54"/>
</g>
<!-- store.js&#45;&gt;logger.js -->
<g id="edge75" class="edge">
<title>store.js&#45;&gt;logger.js</title>
<path fill="none" stroke="#757575" d="M373.03,-850.32C440.44,-850.32 612.8,-850.32 756.88,-850.32 756.88,-850.32 756.88,-850.32 973.62,-850.32 1122.06,-850.32 1253.02,-1004.12 1296.56,-1061.27"/>
<polygon fill="#757575" stroke="#757575" points="1293.52,-1063.05 1302.32,-1068.96 1299.12,-1058.86 1293.52,-1063.05"/>
</g>
<!-- store.js&#45;&gt;user.js -->
<g id="edge76" class="edge">
<title>store.js&#45;&gt;user.js</title>
<path fill="none" stroke="#757575" d="M372.84,-856.39C405.7,-863.31 459.53,-874.65 495.81,-882.3"/>
<polygon fill="#757575" stroke="#757575" points="494.93,-885.69 505.44,-884.33 496.38,-878.84 494.93,-885.69"/>
</g>
<!-- user.js&#45;&gt;id.js -->
<g id="edge77" class="edge">
<title>user.js&#45;&gt;id.js</title>
<path fill="none" stroke="#757575" d="M562.53,-890.32C601.55,-890.32 674.39,-890.32 718.97,-890.32"/>
<polygon fill="#757575" stroke="#757575" points="718.95,-893.82 728.95,-890.32 718.95,-886.82 718.95,-893.82"/>
</g>
<!-- index.js -->
<g id="node15" class="node">
<title>index.js</title>
<path fill="none" stroke="#c6c5fe" d="M53.83,-998.19C53.83,-998.19 7.92,-998.19 7.92,-998.19 3.96,-998.19 0,-994.23 0,-990.28 0,-990.28 0,-982.36 0,-982.36 0,-978.4 3.96,-974.44 7.92,-974.44 7.92,-974.44 53.83,-974.44 53.83,-974.44 57.79,-974.44 61.75,-978.4 61.75,-982.36 61.75,-982.36 61.75,-990.28 61.75,-990.28 61.75,-994.23 57.79,-998.19 53.83,-998.19"/>
<text xml:space="preserve" text-anchor="middle" x="30.88" y="-980.89" font-family="Arial" font-size="14.00" fill="#c6c5fe">index.js</text>
</g>
<!-- index.js&#45;&gt;game&#45;eviction.js -->
<g id="edge11" class="edge">
<title>index.js&#45;&gt;game&#45;eviction.js</title>
<path fill="none" stroke="#757575" d="M32.34,-998.67C34.82,-1058.36 48.28,-1316.53 97.75,-1376.32 100.15,-1379.21 102.9,-1381.79 105.89,-1384.07"/>
<polygon fill="#757575" stroke="#757575" points="103.89,-1386.95 114.22,-1389.31 107.62,-1381.02 103.89,-1386.95"/>
</g>
<!-- index.js&#45;&gt;http&#45;error.js -->
<g id="edge12" class="edge">
<title>index.js&#45;&gt;http&#45;error.js</title>
<path fill="none" stroke="#757575" d="M32.31,-998.61C34.2,-1034.74 44.28,-1142.18 97.75,-1207.32 146.71,-1266.97 233.74,-1297.46 289.6,-1311.63"/>
<polygon fill="#757575" stroke="#757575" points="288.67,-1315 299.21,-1313.97 290.33,-1308.2 288.67,-1315"/>
</g>
<!-- index.js&#45;&gt;http&#45;routes.js -->
<g id="edge13" class="edge">
<title>index.js&#45;&gt;http&#45;routes.js</title>
<path fill="none" stroke="#757575" d="M43.93,-998.39C67.24,-1021.72 118.71,-1073.23 147.4,-1101.95"/>
<polygon fill="#757575" stroke="#757575" points="144.91,-1104.41 154.45,-1109.01 149.86,-1099.46 144.91,-1104.41"/>
</g>
<!-- index.js&#45;&gt;logger.js -->
<g id="edge14" class="edge">
<title>index.js&#45;&gt;logger.js</title>
<path fill="none" stroke="#757575" d="M33.3,-998.49C39.13,-1046.64 62.62,-1223.17 97.75,-1265.32 172.53,-1355.04 225.2,-1362.32 342,-1362.32 342,-1362.32 342,-1362.32 973.62,-1362.32 1102.11,-1362.32 1152.75,-1350.03 1243.75,-1259.32 1286.91,-1216.29 1303.27,-1142.97 1309.02,-1105.64"/>
<polygon fill="#757575" stroke="#757575" points="1312.46,-1106.34 1310.38,-1095.95 1305.53,-1105.37 1312.46,-1106.34"/>
</g>
<!-- index.js&#45;&gt;poker/game.js -->
<g id="edge15" class="edge">
<title>index.js&#45;&gt;poker/game.js</title>
<path fill="none" stroke="#757575" d="M44.02,-974.24C56.88,-961.69 78.02,-941.76 97.75,-926.32 157.54,-879.51 186.39,-885.34 239.75,-831.32 280.85,-789.71 314.66,-729.1 331.14,-696.71"/>
<polygon fill="#757575" stroke="#757575" points="334.22,-698.37 335.56,-687.86 327.96,-695.24 334.22,-698.37"/>
</g>
<!-- index.js&#45;&gt;rate&#45;limit.js -->
<g id="edge19" class="edge">
<title>index.js&#45;&gt;rate&#45;limit.js</title>
<path fill="none" stroke="#757575" d="M34.42,-998.63C40.79,-1026.93 59.69,-1097.69 97.75,-1143.32 158.24,-1215.83 190.41,-1218.9 275.75,-1259.32 280.61,-1261.62 285.78,-1263.75 291.01,-1265.71"/>
<polygon fill="#757575" stroke="#757575" points="289.72,-1268.97 300.31,-1268.98 292.04,-1262.36 289.72,-1268.97"/>
</g>
<!-- index.js&#45;&gt;static&#45;files.js -->
<g id="edge20" class="edge">
<title>index.js&#45;&gt;static&#45;files.js</title>
<path fill="none" stroke="#757575" d="M62.18,-991.98C114.26,-1001.72 221.47,-1021.78 287.02,-1034.04"/>
<polygon fill="#757575" stroke="#757575" points="286,-1037.4 296.47,-1035.8 287.29,-1030.52 286,-1037.4"/>
</g>
<!-- index.js&#45;&gt;store.js -->
<g id="edge21" class="edge">
<title>index.js&#45;&gt;store.js</title>
<path fill="none" stroke="#757575" d="M33.33,-973.96C38.9,-929.07 60.43,-775.74 97.75,-747.32 147.96,-709.08 181.49,-723.06 239.75,-747.32 279.21,-763.75 311.27,-803.63 328.41,-828.67"/>
<polygon fill="#757575" stroke="#757575" points="325.36,-830.39 333.79,-836.81 331.2,-826.53 325.36,-830.39"/>
</g>
<!-- poker/player&#45;view.js -->
<g id="node16" class="node">
<title>poker/player&#45;view.js</title>
<path fill="none" stroke="#c6c5fe" d="M402.33,-173.19C402.33,-173.19 283.67,-173.19 283.67,-173.19 279.71,-173.19 275.75,-169.23 275.75,-165.28 275.75,-165.28 275.75,-157.36 275.75,-157.36 275.75,-153.4 279.71,-149.44 283.67,-149.44 283.67,-149.44 402.33,-149.44 402.33,-149.44 406.29,-149.44 410.25,-153.4 410.25,-157.36 410.25,-157.36 410.25,-165.28 410.25,-165.28 410.25,-169.23 406.29,-173.19 402.33,-173.19"/>
<text xml:space="preserve" text-anchor="middle" x="343" y="-155.89" font-family="Arial" font-size="14.00" fill="#c6c5fe">poker/player&#45;view.js</text>
</g>
<!-- index.js&#45;&gt;poker/player&#45;view.js -->
<g id="edge16" class="edge">
<title>index.js&#45;&gt;poker/player&#45;view.js</title>
<path fill="none" stroke="#757575" d="M34.45,-973.95C42.5,-935.73 68.43,-816.2 97.75,-719.32 165.35,-495.95 148.98,-421.26 275.75,-225.32 286.8,-208.25 303.21,-192.34 316.94,-180.66"/>
<polygon fill="#757575" stroke="#757575" points="318.82,-183.64 324.32,-174.59 314.37,-178.24 318.82,-183.64"/>
</g>
<!-- poker/player.js -->
<g id="node17" class="node">
<title>poker/player.js</title>
<path fill="none" stroke="#cfffac" d="M212.33,-780.19C212.33,-780.19 125.17,-780.19 125.17,-780.19 121.21,-780.19 117.25,-776.23 117.25,-772.28 117.25,-772.28 117.25,-764.36 117.25,-764.36 117.25,-760.4 121.21,-756.44 125.17,-756.44 125.17,-756.44 212.33,-756.44 212.33,-756.44 216.29,-756.44 220.25,-760.4 220.25,-764.36 220.25,-764.36 220.25,-772.28 220.25,-772.28 220.25,-776.23 216.29,-780.19 212.33,-780.19"/>
<text xml:space="preserve" text-anchor="middle" x="168.75" y="-762.89" font-family="Arial" font-size="14.00" fill="#cfffac">poker/player.js</text>
</g>
<!-- index.js&#45;&gt;poker/player.js -->
<g id="edge17" class="edge">
<title>index.js&#45;&gt;poker/player.js</title>
<path fill="none" stroke="#757575" d="M32.25,-974.14C33.97,-939.88 43.63,-841.77 97.75,-789.32 100.57,-786.59 103.73,-784.21 107.11,-782.14"/>
<polygon fill="#757575" stroke="#757575" points="108.4,-785.4 115.75,-777.76 105.24,-779.16 108.4,-785.4"/>
</g>
<!-- poker/recovery.js -->
<g id="node18" class="node">
<title>poker/recovery.js</title>
<path fill="none" stroke="#c6c5fe" d="M219.83,-959.19C219.83,-959.19 117.67,-959.19 117.67,-959.19 113.71,-959.19 109.75,-955.23 109.75,-951.28 109.75,-951.28 109.75,-943.36 109.75,-943.36 109.75,-939.4 113.71,-935.44 117.67,-935.44 117.67,-935.44 219.83,-935.44 219.83,-935.44 223.79,-935.44 227.75,-939.4 227.75,-943.36 227.75,-943.36 227.75,-951.28 227.75,-951.28 227.75,-955.23 223.79,-959.19 219.83,-959.19"/>
<text xml:space="preserve" text-anchor="middle" x="168.75" y="-941.89" font-family="Arial" font-size="14.00" fill="#c6c5fe">poker/recovery.js</text>
</g>
<!-- index.js&#45;&gt;poker/recovery.js -->
<g id="edge18" class="edge">
<title>index.js&#45;&gt;poker/recovery.js</title>
<path fill="none" stroke="#757575" d="M62.03,-977.66C77.24,-973.3 96.15,-967.87 113.76,-962.82"/>
<polygon fill="#757575" stroke="#757575" points="114.69,-966.19 123.34,-960.06 112.76,-959.46 114.69,-966.19"/>
</g>
<!-- websocket&#45;handler.js -->
<g id="node19" class="node">
<title>websocket&#45;handler.js</title>
<path fill="none" stroke="#c6c5fe" d="M231.83,-822.19C231.83,-822.19 105.67,-822.19 105.67,-822.19 101.71,-822.19 97.75,-818.23 97.75,-814.28 97.75,-814.28 97.75,-806.36 97.75,-806.36 97.75,-802.4 101.71,-798.44 105.67,-798.44 105.67,-798.44 231.83,-798.44 231.83,-798.44 235.79,-798.44 239.75,-802.4 239.75,-806.36 239.75,-806.36 239.75,-814.28 239.75,-814.28 239.75,-818.23 235.79,-822.19 231.83,-822.19"/>
<text xml:space="preserve" text-anchor="middle" x="168.75" y="-804.89" font-family="Arial" font-size="14.00" fill="#c6c5fe">websocket&#45;handler.js</text>
</g>
<!-- index.js&#45;&gt;websocket&#45;handler.js -->
<g id="edge22" class="edge">
<title>index.js&#45;&gt;websocket&#45;handler.js</title>
<path fill="none" stroke="#757575" d="M37.53,-974.13C47.8,-952.7 70.91,-907.44 97.75,-874.32 111.1,-857.84 128.73,-841.74 142.96,-829.81"/>
<polygon fill="#757575" stroke="#757575" points="145.06,-832.62 150.57,-823.58 140.62,-827.21 145.06,-832.62"/>
</g>
<!-- poker/player&#45;view.js&#45;&gt;poker/actions.js -->
<g id="edge53" class="edge">
<title>poker/player&#45;view.js&#45;&gt;poker/actions.js</title>
<path fill="none" stroke="#757575" d="M357.66,-173.69C390.23,-203.19 472.69,-277.89 512.16,-313.65"/>
<polygon fill="#757575" stroke="#757575" points="509.46,-315.92 519.22,-320.04 514.16,-310.74 509.46,-315.92"/>
</g>
<!-- poker/player&#45;view.js&#45;&gt;poker/betting.js -->
<g id="edge54" class="edge">
<title>poker/player&#45;view.js&#45;&gt;poker/betting.js</title>
<path fill="none" stroke="#757575" d="M373.82,-148.96C393.9,-141.33 421.19,-132.26 446.25,-128.32 536.25,-114.15 781.27,-76.55 856.25,-128.32 893.41,-153.97 867.45,-185.58 892.25,-223.32 907.07,-245.86 929.53,-266.85 946.78,-281.21"/>
<polygon fill="#757575" stroke="#757575" points="944.11,-283.55 954.09,-287.13 948.52,-278.11 944.11,-283.55"/>
</g>
<!-- poker/player&#45;view.js&#45;&gt;poker/deck.js -->
<g id="edge55" class="edge">
<title>poker/player&#45;view.js&#45;&gt;poker/deck.js</title>
<path fill="none" stroke="#757575" d="M410.58,-151.45C533.45,-134.79 789.41,-107.84 856.25,-161.32 913.17,-206.85 846.83,-264.31 892.25,-321.32 899.1,-329.92 908.38,-336.69 918.18,-341.98"/>
<polygon fill="#757575" stroke="#757575" points="916.6,-345.1 927.13,-346.3 919.65,-338.8 916.6,-345.1"/>
</g>
<!-- poker/player&#45;view.js&#45;&gt;poker/game&#45;tick.js -->
<g id="edge56" class="edge">
<title>poker/player&#45;view.js&#45;&gt;poker/game&#45;tick.js</title>
<path fill="none" stroke="#757575" d="M410.34,-164.69C484.97,-168.49 605.85,-174.64 683.32,-178.58"/>
<polygon fill="#757575" stroke="#757575" points="682.75,-182.05 692.91,-179.06 683.1,-175.06 682.75,-182.05"/>
</g>
<!-- poker/tournament&#45;tick.js -->
<g id="node27" class="node">
<title>poker/tournament&#45;tick.js</title>
<path fill="none" stroke="#c6c5fe" d="M1045.08,-214.19C1045.08,-214.19 900.17,-214.19 900.17,-214.19 896.21,-214.19 892.25,-210.23 892.25,-206.28 892.25,-206.28 892.25,-198.36 892.25,-198.36 892.25,-194.4 896.21,-190.44 900.17,-190.44 900.17,-190.44 1045.08,-190.44 1045.08,-190.44 1049.04,-190.44 1053,-194.4 1053,-198.36 1053,-198.36 1053,-206.28 1053,-206.28 1053,-210.23 1049.04,-214.19 1045.08,-214.19"/>
<text xml:space="preserve" text-anchor="middle" x="972.62" y="-196.89" font-family="Arial" font-size="14.00" fill="#c6c5fe">poker/tournament&#45;tick.js</text>
</g>
<!-- poker/player&#45;view.js&#45;&gt;poker/tournament&#45;tick.js -->
<g id="edge59" class="edge">
<title>poker/player&#45;view.js&#45;&gt;poker/tournament&#45;tick.js</title>
<path fill="none" stroke="#757575" d="M356.17,-149.05C374.05,-131.98 409.33,-101.88 446.25,-90.32 620.15,-35.86 687.39,-21.83 856.25,-90.32 901.21,-108.55 938.3,-153.65 957.48,-180.73"/>
<polygon fill="#757575" stroke="#757575" points="954.54,-182.62 963.08,-188.88 960.31,-178.66 954.54,-182.62"/>
</g>
<!-- poker/player&#45;view.js&#45;&gt;poker/hand&#45;rankings.js -->
<g id="edge57" class="edge">
<title>poker/player&#45;view.js&#45;&gt;poker/hand&#45;rankings.js</title>
<path fill="none" stroke="#757575" d="M348.74,-173.43C361.49,-205.12 398.76,-292.3 446.25,-354.32 525.07,-457.24 544.61,-493.27 659.5,-553.32 663.02,-555.16 666.69,-556.83 670.45,-558.36"/>
<polygon fill="#757575" stroke="#757575" points="669.25,-561.65 679.85,-561.78 671.65,-555.07 669.25,-561.65"/>
</g>
<!-- poker/ranking.js -->
<g id="node34" class="node">
<title>poker/ranking.js</title>
<path fill="none" stroke="#c6c5fe" d="M1020.33,-96.19C1020.33,-96.19 924.92,-96.19 924.92,-96.19 920.96,-96.19 917,-92.23 917,-88.28 917,-88.28 917,-80.36 917,-80.36 917,-76.4 920.96,-72.44 924.92,-72.44 924.92,-72.44 1020.33,-72.44 1020.33,-72.44 1024.29,-72.44 1028.25,-76.4 1028.25,-80.36 1028.25,-80.36 1028.25,-88.28 1028.25,-88.28 1028.25,-92.23 1024.29,-96.19 1020.33,-96.19"/>
<text xml:space="preserve" text-anchor="middle" x="972.62" y="-78.89" font-family="Arial" font-size="14.00" fill="#c6c5fe">poker/ranking.js</text>
</g>
<!-- poker/player&#45;view.js&#45;&gt;poker/ranking.js -->
<g id="edge58" class="edge">
<title>poker/player&#45;view.js&#45;&gt;poker/ranking.js</title>
<path fill="none" stroke="#757575" d="M349.82,-149.23C362.87,-123.7 397.24,-64.82 446.25,-42.32 611.85,33.73 676.8,-10.67 856.25,-42.32 883.85,-47.18 913.54,-58.13 935.88,-67.63"/>
<polygon fill="#757575" stroke="#757575" points="934.27,-70.74 944.83,-71.54 937.07,-64.33 934.27,-70.74"/>
</g>
<!-- poker/recovery.js&#45;&gt;../shared/tournament.js -->
<g id="edge61" class="edge">
<title>poker/recovery.js&#45;&gt;../shared/tournament.js</title>
<path fill="none" stroke="#757575" d="M227.99,-951.99C373.29,-962.65 747.9,-983.7 856.25,-927.32 943.02,-882.16 1105.84,-613.55 1152.55,-534.31"/>
<polygon fill="#757575" stroke="#757575" points="1155.54,-536.13 1157.58,-525.73 1149.5,-532.59 1155.54,-536.13"/>
</g>
<!-- poker/recovery.js&#45;&gt;logger.js -->
<g id="edge62" class="edge">
<title>poker/recovery.js&#45;&gt;logger.js</title>
<path fill="none" stroke="#757575" d="M195.31,-959.61C216.43,-969.3 247.43,-982.44 275.75,-990.32 349.67,-1010.87 370.06,-1008.26 446.25,-1017.32 760.44,-1054.66 1141.48,-1074.47 1268.42,-1080.39"/>
<polygon fill="#757575" stroke="#757575" points="1267.89,-1083.87 1278.04,-1080.83 1268.21,-1076.88 1267.89,-1083.87"/>
</g>
<!-- poker/recovery.js&#45;&gt;poker/game.js -->
<g id="edge63" class="edge">
<title>poker/recovery.js&#45;&gt;poker/game.js</title>
<path fill="none" stroke="#757575" d="M196.39,-934.96C210.73,-927.23 227.88,-916.12 239.75,-902.32 247,-893.9 308.14,-752.91 332.27,-696.95"/>
<polygon fill="#757575" stroke="#757575" points="335.35,-698.62 336.1,-688.05 328.93,-695.85 335.35,-698.62"/>
</g>
<!-- poker/recovery.js&#45;&gt;poker/seat.js -->
<g id="edge65" class="edge">
<title>poker/recovery.js&#45;&gt;poker/seat.js</title>
<path fill="none" stroke="#757575" d="M228.08,-958.36C402.93,-990.16 918.92,-1073.92 1053,-982.32 1143.23,-920.67 1161.02,-774.91 1164.52,-717.83"/>
<polygon fill="#757575" stroke="#757575" points="1168.01,-718.15 1165.02,-707.98 1161.02,-717.79 1168.01,-718.15"/>
</g>
<!-- poker/recovery.js&#45;&gt;poker/hand&#45;history/io.js -->
<g id="edge64" class="edge">
<title>poker/recovery.js&#45;&gt;poker/hand&#45;history/io.js</title>
<path fill="none" stroke="#757575" d="M200.71,-935C221.55,-927.39 249.85,-918.32 275.75,-914.32 291.69,-911.85 842.85,-920.29 856.25,-911.32 943.53,-852.88 964.91,-714.51 970.04,-658.98"/>
<polygon fill="#757575" stroke="#757575" points="973.53,-659.35 970.85,-649.1 966.55,-658.78 973.53,-659.35"/>
</g>
<!-- websocket&#45;handler.js&#45;&gt;poker/game.js -->
<g id="edge80" class="edge">
<title>websocket&#45;handler.js&#45;&gt;poker/game.js</title>
<path fill="none" stroke="#757575" d="M224.22,-797.99C229.72,-795.59 235.01,-792.73 239.75,-789.32 262.27,-773.11 257.69,-759.38 275.75,-738.32 289.33,-722.48 306.26,-706.17 319.62,-693.98"/>
<polygon fill="#757575" stroke="#757575" points="321.59,-696.91 326.68,-687.62 316.9,-691.71 321.59,-696.91"/>
</g>
<!-- websocket&#45;handler.js&#45;&gt;poker/hand&#45;history/index.js -->
<g id="edge81" class="edge">
<title>websocket&#45;handler.js&#45;&gt;poker/hand&#45;history/index.js</title>
<path fill="none" stroke="#757575" d="M214.12,-798.02C222.7,-795.36 231.56,-792.41 239.75,-789.32 336.34,-752.86 445.8,-699.19 499.9,-671.8"/>
<polygon fill="#757575" stroke="#757575" points="501.28,-675.02 508.61,-667.37 498.11,-668.78 501.28,-675.02"/>
</g>
<!-- websocket&#45;handler.js&#45;&gt;poker/actions.js -->
<g id="edge78" class="edge">
<title>websocket&#45;handler.js&#45;&gt;poker/actions.js</title>
<path fill="none" stroke="#757575" d="M228.29,-798.1C232.5,-795.68 236.4,-792.78 239.75,-789.32 283.23,-744.39 251.64,-711.01 275.75,-653.32 333.26,-515.72 331.13,-459.12 446.25,-364.32 453.25,-358.56 461.39,-353.83 469.84,-349.96"/>
<polygon fill="#757575" stroke="#757575" points="470.94,-353.3 478.85,-346.24 468.27,-346.83 470.94,-353.3"/>
</g>
<!-- websocket&#45;handler.js&#45;&gt;poker/game&#45;tick.js -->
<g id="edge79" class="edge">
<title>websocket&#45;handler.js&#45;&gt;poker/game&#45;tick.js</title>
<path fill="none" stroke="#757575" d="M229.9,-798.08C233.59,-795.65 236.94,-792.76 239.75,-789.32 295.65,-720.89 234.4,-471.41 275.75,-393.32 354.36,-244.86 568.88,-200.8 683.07,-187.77"/>
<polygon fill="#757575" stroke="#757575" points="683.4,-191.25 692.97,-186.69 682.65,-184.29 683.4,-191.25"/>
</g>
<!-- poker/actions.js&#45;&gt;poker/betting.js -->
<g id="edge23" class="edge">
<title>poker/actions.js&#45;&gt;poker/betting.js</title>
<path fill="none" stroke="#757575" d="M567.34,-321.04C584.14,-314.33 605.08,-305.69 623.5,-297.32 639.78,-289.91 642.09,-283.43 659.5,-279.32 745.02,-259.13 847.11,-272.85 910.66,-285.68"/>
<polygon fill="#757575" stroke="#757575" points="909.7,-289.05 920.2,-287.66 911.13,-282.2 909.7,-289.05"/>
</g>
<!-- poker/dealing.js -->
<g id="node22" class="node">
<title>poker/dealing.js</title>
<path fill="none" stroke="#c6c5fe" d="M805.21,-312.19C805.21,-312.19 710.54,-312.19 710.54,-312.19 706.58,-312.19 702.62,-308.23 702.62,-304.28 702.62,-304.28 702.62,-296.36 702.62,-296.36 702.62,-292.4 706.58,-288.44 710.54,-288.44 710.54,-288.44 805.21,-288.44 805.21,-288.44 809.17,-288.44 813.12,-292.4 813.12,-296.36 813.12,-296.36 813.12,-304.28 813.12,-304.28 813.12,-308.23 809.17,-312.19 805.21,-312.19"/>
<text xml:space="preserve" text-anchor="middle" x="757.88" y="-294.89" font-family="Arial" font-size="14.00" fill="#c6c5fe">poker/dealing.js</text>
</g>
<!-- poker/actions.js&#45;&gt;poker/dealing.js -->
<g id="edge24" class="edge">
<title>poker/actions.js&#45;&gt;poker/dealing.js</title>
<path fill="none" stroke="#757575" d="M590.22,-325.2C620.75,-320.64 659.06,-314.92 691.25,-310.12"/>
<polygon fill="#757575" stroke="#757575" points="691.49,-313.62 700.86,-308.68 690.45,-306.7 691.49,-313.62"/>
</g>
<!-- poker/actions.js&#45;&gt;poker/deck.js -->
<g id="edge25" class="edge">
<title>poker/actions.js&#45;&gt;poker/deck.js</title>
<path fill="none" stroke="#757575" d="M590.18,-336.56C672.55,-341.47 828.41,-350.77 913.17,-355.83"/>
<polygon fill="#757575" stroke="#757575" points="912.94,-359.32 923.13,-356.42 913.36,-352.33 912.94,-359.32"/>
</g>
<!-- poker/actions.js&#45;&gt;poker/game&#45;tick.js -->
<g id="edge26" class="edge">
<title>poker/actions.js&#45;&gt;poker/game&#45;tick.js</title>
<path fill="none" stroke="#757575" d="M585,-320.95C598.82,-315.54 612.95,-307.93 623.5,-297.32 653.59,-267.06 627.52,-236.57 659.5,-208.32 666.57,-202.07 674.98,-197.3 683.85,-193.67"/>
<polygon fill="#757575" stroke="#757575" points="684.75,-197.06 693,-190.41 682.4,-190.47 684.75,-197.06"/>
</g>
<!-- poker/actions.js&#45;&gt;poker/seat.js -->
<g id="edge27" class="edge">
<title>poker/actions.js&#45;&gt;poker/seat.js</title>
<path fill="none" stroke="#757575" d="M590.03,-340.67C601.3,-343.07 612.96,-346.21 623.5,-350.32 832.29,-431.63 866.18,-490.61 1053,-614.32 1083.26,-634.36 1117.08,-658.71 1139.64,-675.25"/>
<polygon fill="#757575" stroke="#757575" points="1137.52,-678.03 1147.65,-681.14 1141.67,-672.39 1137.52,-678.03"/>
</g>
<!-- poker/actions.js&#45;&gt;poker/tournament&#45;summary.js -->
<g id="edge28" class="edge">
<title>poker/actions.js&#45;&gt;poker/tournament&#45;summary.js</title>
<path fill="none" stroke="#757575" d="M545.25,-345.43C564.8,-370.25 612.08,-427.93 659.5,-468.32 679.96,-485.74 705.41,-502.32 725.16,-514.23"/>
<polygon fill="#757575" stroke="#757575" points="723.22,-517.15 733.61,-519.24 726.79,-511.13 723.22,-517.15"/>
</g>
<!-- poker/actions.js&#45;&gt;poker/tournament&#45;tick.js -->
<g id="edge29" class="edge">
<title>poker/actions.js&#45;&gt;poker/tournament&#45;tick.js</title>
<path fill="none" stroke="#757575" d="M573.46,-321.06C589.49,-315.04 608.02,-306.99 623.5,-297.32 641.66,-285.98 640.35,-274.88 659.5,-265.32 728.91,-230.68 816.01,-215.08 880.55,-208.06"/>
<polygon fill="#757575" stroke="#757575" points="880.83,-211.55 890.41,-207.05 880.11,-204.59 880.83,-211.55"/>
</g>
<!-- poker/betting.js&#45;&gt;poker/seat.js -->
<g id="edge31" class="edge">
<title>poker/betting.js&#45;&gt;poker/seat.js</title>
<path fill="none" stroke="#757575" d="M1017.44,-312.65C1030.69,-318.42 1044.08,-326.67 1053,-338.32 1106.58,-408.29 1061.88,-449.46 1089,-533.32 1105.79,-585.23 1135.69,-642.02 1152.67,-672.33"/>
<polygon fill="#757575" stroke="#757575" points="1149.57,-673.96 1157.55,-680.93 1155.66,-670.5 1149.57,-673.96"/>
</g>
<!-- poker/circular&#45;array.js -->
<g id="node28" class="node">
<title>poker/circular&#45;array.js</title>
<path fill="none" stroke="#cfffac" d="M1230.96,-312.19C1230.96,-312.19 1101.79,-312.19 1101.79,-312.19 1097.83,-312.19 1093.88,-308.23 1093.88,-304.28 1093.88,-304.28 1093.88,-296.36 1093.88,-296.36 1093.88,-292.4 1097.83,-288.44 1101.79,-288.44 1101.79,-288.44 1230.96,-288.44 1230.96,-288.44 1234.92,-288.44 1238.88,-292.4 1238.88,-296.36 1238.88,-296.36 1238.88,-304.28 1238.88,-304.28 1238.88,-308.23 1234.92,-312.19 1230.96,-312.19"/>
<text xml:space="preserve" text-anchor="middle" x="1166.38" y="-294.89" font-family="Arial" font-size="14.00" fill="#cfffac">poker/circular&#45;array.js</text>
</g>
<!-- poker/betting.js&#45;&gt;poker/circular&#45;array.js -->
<g id="edge30" class="edge">
<title>poker/betting.js&#45;&gt;poker/circular&#45;array.js</title>
<path fill="none" stroke="#757575" d="M1026.78,-300.32C1043.94,-300.32 1063.38,-300.32 1082.17,-300.32"/>
<polygon fill="#757575" stroke="#757575" points="1081.92,-303.82 1091.92,-300.32 1081.92,-296.82 1081.92,-303.82"/>
</g>
<!-- poker/dealing.js&#45;&gt;poker/betting.js -->
<g id="edge32" class="edge">
<title>poker/dealing.js&#45;&gt;poker/betting.js</title>
<path fill="none" stroke="#757575" d="M813.39,-300.32C842.1,-300.32 877.48,-300.32 907.51,-300.32"/>
<polygon fill="#757575" stroke="#757575" points="907.21,-303.82 917.21,-300.32 907.21,-296.82 907.21,-303.82"/>
</g>
<!-- poker/dealing.js&#45;&gt;poker/deck.js -->
<g id="edge33" class="edge">
<title>poker/dealing.js&#45;&gt;poker/deck.js</title>
<path fill="none" stroke="#757575" d="M805.48,-312.58C821.58,-316.87 839.72,-321.75 856.25,-326.32 876.57,-331.94 898.86,-338.27 918.38,-343.87"/>
<polygon fill="#757575" stroke="#757575" points="917.18,-347.17 927.76,-346.57 919.11,-340.44 917.18,-347.17"/>
</g>
<!-- poker/rng.js -->
<g id="node29" class="node">
<title>poker/rng.js</title>
<path fill="none" stroke="#c6c5fe" d="M1201.71,-379.19C1201.71,-379.19 1131.04,-379.19 1131.04,-379.19 1127.08,-379.19 1123.12,-375.23 1123.12,-371.28 1123.12,-371.28 1123.12,-363.36 1123.12,-363.36 1123.12,-359.4 1127.08,-355.44 1131.04,-355.44 1131.04,-355.44 1201.71,-355.44 1201.71,-355.44 1205.67,-355.44 1209.62,-359.4 1209.62,-363.36 1209.62,-363.36 1209.62,-371.28 1209.62,-371.28 1209.62,-375.23 1205.67,-379.19 1201.71,-379.19"/>
<text xml:space="preserve" text-anchor="middle" x="1166.38" y="-361.89" font-family="Arial" font-size="14.00" fill="#c6c5fe">poker/rng.js</text>
</g>
<!-- poker/deck.js&#45;&gt;poker/rng.js -->
<g id="edge34" class="edge">
<title>poker/deck.js&#45;&gt;poker/rng.js</title>
<path fill="none" stroke="#757575" d="M1020.53,-361.27C1048.01,-362.42 1082.83,-363.87 1111.44,-365.07"/>
<polygon fill="#757575" stroke="#757575" points="1111.23,-368.56 1121.36,-365.48 1111.52,-361.57 1111.23,-368.56"/>
</g>
<!-- poker/game&#45;tick.js&#45;&gt;poker/tournament&#45;tick.js -->
<g id="edge35" class="edge">
<title>poker/game&#45;tick.js&#45;&gt;poker/tournament&#45;tick.js</title>
<path fill="none" stroke="#757575" d="M821.27,-188.18C839.8,-189.93 860.5,-191.87 880.47,-193.75"/>
<polygon fill="#757575" stroke="#757575" points="880,-197.22 890.29,-194.67 880.66,-190.25 880,-197.22"/>
</g>
<!-- poker/tournament&#45;summary.js&#45;&gt;../shared/tournament.js -->
<g id="edge71" class="edge">
<title>poker/tournament&#45;summary.js&#45;&gt;../shared/tournament.js</title>
<path fill="none" stroke="#757575" d="M856.5,-527.51C923.65,-524.21 1012.09,-519.86 1077.12,-516.66"/>
<polygon fill="#757575" stroke="#757575" points="1077.24,-520.16 1087.06,-516.17 1076.9,-513.17 1077.24,-520.16"/>
</g>
<!-- poker/tournament&#45;summary.js&#45;&gt;poker/hand&#45;history/io.js -->
<g id="edge72" class="edge">
<title>poker/tournament&#45;summary.js&#45;&gt;poker/hand&#45;history/io.js</title>
<path fill="none" stroke="#757575" d="M831.96,-544.67C840.31,-547.08 848.57,-549.93 856.25,-553.32 891.86,-569.01 927.57,-596.67 949.62,-615.49"/>
<polygon fill="#757575" stroke="#757575" points="947.22,-618.03 957.06,-621.95 951.81,-612.75 947.22,-618.03"/>
</g>
<!-- poker/tournament&#45;tick.js&#45;&gt;../shared/tournament.js -->
<g id="edge73" class="edge">
<title>poker/tournament&#45;tick.js&#45;&gt;../shared/tournament.js</title>
<path fill="none" stroke="#757575" d="M990.53,-214.67C1008.41,-228.54 1036.28,-252.64 1053,-279.32 1080.09,-322.55 1067.48,-342.06 1089,-388.32 1106.64,-426.23 1133.36,-466.9 1150.07,-490.95"/>
<polygon fill="#757575" stroke="#757575" points="1147.08,-492.78 1155.69,-498.95 1152.8,-488.75 1147.08,-492.78"/>
</g>
<!-- poker/rng.js&#45;&gt;logger.js -->
<g id="edge66" class="edge">
<title>poker/rng.js&#45;&gt;logger.js</title>
<path fill="none" stroke="#757575" d="M1210.04,-377.89C1222.83,-383.15 1235.61,-390.92 1243.75,-402.32 1282.73,-456.87 1305.99,-945.23 1310.9,-1058.8"/>
<polygon fill="#757575" stroke="#757575" points="1307.4,-1058.86 1311.32,-1068.7 1314.39,-1058.56 1307.4,-1058.86"/>
</g>
<!-- poker/hand&#45;rankings.js&#45;&gt;poker/deck.js -->
<g id="edge52" class="edge">
<title>poker/hand&#45;rankings.js&#45;&gt;poker/deck.js</title>
<path fill="none" stroke="#757575" d="M834.41,-564.67C842.19,-561.77 849.65,-558.06 856.25,-553.32 917.06,-509.6 951.38,-423.02 964.87,-381.95"/>
<polygon fill="#757575" stroke="#757575" points="968.13,-383.24 967.8,-372.65 961.46,-381.13 968.13,-383.24"/>
</g>
<!-- poker/showdown.js&#45;&gt;poker/seat.js -->
<g id="edge69" class="edge">
<title>poker/showdown.js&#45;&gt;poker/seat.js</title>
<path fill="none" stroke="#757575" d="M600.48,-732.6C698.46,-729.65 890.46,-722.51 1053,-708.32 1071.07,-706.74 1090.72,-704.48 1108.46,-702.23"/>
<polygon fill="#757575" stroke="#757575" points="1108.83,-705.72 1118.3,-700.96 1107.93,-698.77 1108.83,-705.72"/>
</g>
<!-- poker/showdown.js&#45;&gt;poker/hand&#45;rankings.js -->
<g id="edge67" class="edge">
<title>poker/showdown.js&#45;&gt;poker/hand&#45;rankings.js</title>
<path fill="none" stroke="#757575" d="M561.34,-722.13C580.52,-711.88 606.36,-695.65 623.5,-675.32 648.63,-645.51 629.19,-619.84 659.5,-595.32 663.03,-592.46 666.86,-589.97 670.89,-587.8"/>
<polygon fill="#757575" stroke="#757575" points="672.26,-591.02 679.89,-583.67 669.34,-584.66 672.26,-591.02"/>
</g>
<!-- poker/pots.js -->
<g id="node35" class="node">
<title>poker/pots.js</title>
<path fill="none" stroke="#cfffac" d="M796.21,-784.19C796.21,-784.19 719.54,-784.19 719.54,-784.19 715.58,-784.19 711.62,-780.23 711.62,-776.28 711.62,-776.28 711.62,-768.36 711.62,-768.36 711.62,-764.4 715.58,-760.44 719.54,-760.44 719.54,-760.44 796.21,-760.44 796.21,-760.44 800.17,-760.44 804.12,-764.4 804.12,-768.36 804.12,-768.36 804.12,-776.28 804.12,-776.28 804.12,-780.23 800.17,-784.19 796.21,-784.19"/>
<text xml:space="preserve" text-anchor="middle" x="757.88" y="-766.89" font-family="Arial" font-size="14.00" fill="#cfffac">poker/pots.js</text>
</g>
<!-- poker/showdown.js&#45;&gt;poker/pots.js -->
<g id="edge68" class="edge">
<title>poker/showdown.js&#45;&gt;poker/pots.js</title>
<path fill="none" stroke="#757575" d="M600.69,-745.46C632.2,-750.88 669.72,-757.33 700.09,-762.55"/>
<polygon fill="#757575" stroke="#757575" points="699.42,-765.99 709.86,-764.23 700.6,-759.09 699.42,-765.99"/>
</g>
<!-- poker/hand&#45;history/view.js&#45;&gt;poker/hand&#45;history/io.js -->
<g id="edge51" class="edge">
<title>poker/hand&#45;history/view.js&#45;&gt;poker/hand&#45;history/io.js</title>
<path fill="none" stroke="#757575" d="M843.88,-623.91C856.86,-625.07 870.28,-626.27 883.33,-627.43"/>
<polygon fill="#757575" stroke="#757575" points="882.9,-630.91 893.17,-628.31 883.52,-623.93 882.9,-630.91"/>
</g>
<!-- poker/ranking.js&#45;&gt;../shared/tournament.js -->
<g id="edge60" class="edge">
<title>poker/ranking.js&#45;&gt;../shared/tournament.js</title>
<path fill="none" stroke="#757575" d="M987.37,-96.61C1005.53,-113.7 1037.07,-146.49 1053,-181.32 1091.84,-266.24 1055.92,-300.99 1089,-388.32 1103.73,-427.21 1131.07,-467.32 1148.73,-491.02"/>
<polygon fill="#757575" stroke="#757575" points="1145.89,-493.07 1154.72,-498.92 1151.46,-488.84 1145.89,-493.07"/>
</g>
</g>
</svg>
