<?xml version="1.0" encoding="UTF-8" standalone="no"?>
<!DOCTYPE svg PUBLIC "-//W3C//DTD SVG 1.1//EN"
 "http://www.w3.org/Graphics/SVG/1.1/DTD/svg11.dtd">
<!-- Generated by graphviz version 14.1.2 (20260124.0452)
 -->
<!-- Title: G Pages: 1 -->
<svg width="747pt" height="747pt"
 viewBox="0.00 0.00 747.00 747.00" xmlns="http://www.w3.org/2000/svg" xmlns:xlink="http://www.w3.org/1999/xlink">
<g id="graph0" class="graph" transform="scale(1 1) rotate(0) translate(21.6 725.17)">
<title>G</title>
<polygon fill="#111111" stroke="none" points="-21.6,21.6 -21.6,-725.17 725.6,-725.17 725.6,21.6 -21.6,21.6"/>
<!-- action&#45;panel.js -->
<g id="node1" class="node">
<title>action&#45;panel.js</title>
<path fill="none" stroke="#c6c5fe" d="M292.58,-229.34C292.58,-229.34 205.42,-229.34 205.42,-229.34 201.46,-229.34 197.5,-225.38 197.5,-221.42 197.5,-221.42 197.5,-213.51 197.5,-213.51 197.5,-209.55 201.46,-205.59 205.42,-205.59 205.42,-205.59 292.58,-205.59 292.58,-205.59 296.54,-205.59 300.5,-209.55 300.5,-213.51 300.5,-213.51 300.5,-221.42 300.5,-221.42 300.5,-225.38 296.54,-229.34 292.58,-229.34"/>
<text xml:space="preserve" text-anchor="middle" x="249" y="-212.04" font-family="Arial" font-size="14.00" fill="#c6c5fe">action&#45;panel.js</text>
</g>
<!-- button.js -->
<g id="node2" class="node">
<title>button.js</title>
<path fill="none" stroke="#c6c5fe" d="M573.96,-429.34C573.96,-429.34 522.79,-429.34 522.79,-429.34 518.83,-429.34 514.88,-425.38 514.88,-421.42 514.88,-421.42 514.88,-413.51 514.88,-413.51 514.88,-409.55 518.83,-405.59 522.79,-405.59 522.79,-405.59 573.96,-405.59 573.96,-405.59 577.92,-405.59 581.88,-409.55 581.88,-413.51 581.88,-413.51 581.88,-421.42 581.88,-421.42 581.88,-425.38 577.92,-429.34 573.96,-429.34"/>
<text xml:space="preserve" text-anchor="middle" x="548.38" y="-412.04" font-family="Arial" font-size="14.00" fill="#c6c5fe">button.js</text>
</g>
<!-- action&#45;panel.js&#45;&gt;button.js -->
<g id="edge1" class="edge">
<title>action&#45;panel.js&#45;&gt;button.js</title>
<path fill="none" stroke="#757575" d="M292.14,-229.75C348.6,-246.44 443.3,-275.38 456.75,-285.47 495.62,-314.62 523.66,-365.5 537.54,-394.85"/>
<polygon fill="#757575" stroke="#757575" points="534.34,-396.27 541.68,-403.92 540.71,-393.37 534.34,-396.27"/>
</g>
<!-- card.js -->
<g id="node3" class="node">
<title>card.js</title>
<path fill="none" stroke="#c6c5fe" d="M418.08,-351.34C418.08,-351.34 378.17,-351.34 378.17,-351.34 374.21,-351.34 370.25,-347.38 370.25,-343.42 370.25,-343.42 370.25,-335.51 370.25,-335.51 370.25,-331.55 374.21,-327.59 378.17,-327.59 378.17,-327.59 418.08,-327.59 418.08,-327.59 422.04,-327.59 426,-331.55 426,-335.51 426,-335.51 426,-343.42 426,-343.42 426,-347.38 422.04,-351.34 418.08,-351.34"/>
<text xml:space="preserve" text-anchor="middle" x="398.12" y="-334.04" font-family="Arial" font-size="14.00" fill="#c6c5fe">card.js</text>
</g>
<!-- action&#45;panel.js&#45;&gt;card.js -->
<g id="edge2" class="edge">
<title>action&#45;panel.js&#45;&gt;card.js</title>
<path fill="none" stroke="#757575" d="M264.92,-229.83C290.6,-251.14 343.37,-294.89 373.9,-320.2"/>
<polygon fill="#757575" stroke="#757575" points="371.51,-322.77 381.44,-326.46 375.98,-317.38 371.51,-322.77"/>
</g>
<!-- currency&#45;slider.js -->
<g id="node4" class="node">
<title>currency&#45;slider.js</title>
<path fill="none" stroke="#c6c5fe" d="M448.83,-233.34C448.83,-233.34 347.42,-233.34 347.42,-233.34 343.46,-233.34 339.5,-229.38 339.5,-225.42 339.5,-225.42 339.5,-217.51 339.5,-217.51 339.5,-213.55 343.46,-209.59 347.42,-209.59 347.42,-209.59 448.83,-209.59 448.83,-209.59 452.79,-209.59 456.75,-213.55 456.75,-217.51 456.75,-217.51 456.75,-225.42 456.75,-225.42 456.75,-229.38 452.79,-233.34 448.83,-233.34"/>
<text xml:space="preserve" text-anchor="middle" x="398.12" y="-216.04" font-family="Arial" font-size="14.00" fill="#c6c5fe">currency&#45;slider.js</text>
</g>
<!-- action&#45;panel.js&#45;&gt;currency&#45;slider.js -->
<g id="edge3" class="edge">
<title>action&#45;panel.js&#45;&gt;currency&#45;slider.js</title>
<path fill="none" stroke="#757575" d="M300.63,-218.84C309.34,-219.08 318.52,-219.33 327.63,-219.58"/>
<polygon fill="#757575" stroke="#757575" points="327.46,-223.07 337.56,-219.85 327.65,-216.07 327.46,-223.07"/>
</g>
<!-- styles.js -->
<g id="node5" class="node">
<title>styles.js</title>
<path fill="none" stroke="#cfffac" d="M696.08,-370.34C696.08,-370.34 647.92,-370.34 647.92,-370.34 643.96,-370.34 640,-366.38 640,-362.42 640,-362.42 640,-354.51 640,-354.51 640,-350.55 643.96,-346.59 647.92,-346.59 647.92,-346.59 696.08,-346.59 696.08,-346.59 700.04,-346.59 704,-350.55 704,-354.51 704,-354.51 704,-362.42 704,-362.42 704,-366.38 700.04,-370.34 696.08,-370.34"/>
<text xml:space="preserve" text-anchor="middle" x="672" y="-353.04" font-family="Arial" font-size="14.00" fill="#cfffac">styles.js</text>
</g>
<!-- action&#45;panel.js&#45;&gt;styles.js -->
<g id="edge4" class="edge">
<title>action&#45;panel.js&#45;&gt;styles.js</title>
<path fill="none" stroke="#757575" d="M300.61,-205.39C342.77,-197.22 404.18,-189.69 456.75,-200.47 526.48,-214.76 548.67,-218.68 604,-263.47 628.85,-283.58 648.6,-315.17 660.04,-336.33"/>
<polygon fill="#757575" stroke="#757575" points="656.83,-337.74 664.56,-345 663.04,-334.51 656.83,-337.74"/>
</g>
<!-- button.js&#45;&gt;styles.js -->
<g id="edge14" class="edge">
<title>button.js&#45;&gt;styles.js</title>
<path fill="none" stroke="#757575" d="M575.53,-405.1C584.56,-400.81 594.74,-395.95 604,-391.47 614.39,-386.43 625.66,-380.91 635.94,-375.84"/>
<polygon fill="#757575" stroke="#757575" points="637.45,-379 644.86,-371.44 634.35,-372.73 637.45,-379"/>
</g>
<!-- card.js&#45;&gt;styles.js -->
<g id="edge15" class="edge">
<title>card.js&#45;&gt;styles.js</title>
<path fill="none" stroke="#757575" d="M426.44,-341.37C473.83,-344.69 571.64,-351.52 628.15,-355.47"/>
<polygon fill="#757575" stroke="#757575" points="627.82,-358.96 638.04,-356.16 628.3,-351.97 627.82,-358.96"/>
</g>
<!-- currency&#45;slider.js&#45;&gt;button.js -->
<g id="edge17" class="edge">
<title>currency&#45;slider.js&#45;&gt;button.js</title>
<path fill="none" stroke="#757575" d="M436.1,-233.79C443.5,-237.4 450.82,-241.91 456.75,-247.47 501.72,-289.56 528.89,-359.08 540.6,-394.77"/>
<polygon fill="#757575" stroke="#757575" points="537.18,-395.56 543.52,-404.05 543.85,-393.46 537.18,-395.56"/>
</g>
<!-- currency&#45;slider.js&#45;&gt;styles.js -->
<g id="edge18" class="edge">
<title>currency&#45;slider.js&#45;&gt;styles.js</title>
<path fill="none" stroke="#757575" d="M427.11,-233.73C436.57,-237.97 447.17,-242.83 456.75,-247.47 521.78,-278.95 596.44,-318.4 638.24,-340.79"/>
<polygon fill="#757575" stroke="#757575" points="636.57,-343.87 647.04,-345.51 639.89,-337.7 636.57,-343.87"/>
</g>
<!-- app.js -->
<g id="node6" class="node">
<title>app.js</title>
<path fill="none" stroke="#c6c5fe" d="M46.08,-511.34C46.08,-511.34 7.92,-511.34 7.92,-511.34 3.96,-511.34 0,-507.38 0,-503.42 0,-503.42 0,-495.51 0,-495.51 0,-491.55 3.96,-487.59 7.92,-487.59 7.92,-487.59 46.08,-487.59 46.08,-487.59 50.04,-487.59 54,-491.55 54,-495.51 54,-495.51 54,-503.42 54,-503.42 54,-507.38 50.04,-511.34 46.08,-511.34"/>
<text xml:space="preserve" text-anchor="middle" x="27" y="-494.04" font-family="Arial" font-size="14.00" fill="#c6c5fe">app.js</text>
</g>
<!-- app.js&#45;&gt;styles.js -->
<g id="edge8" class="edge">
<title>app.js&#45;&gt;styles.js</title>
<path fill="none" stroke="#757575" d="M32.87,-511.68C41.68,-532.57 61.98,-575.6 90,-603.47 147.78,-660.92 166.52,-696.47 248,-696.47 248,-696.47 248,-696.47 399.12,-696.47 491.43,-696.47 537.04,-726 604,-662.47 644.89,-623.67 663.63,-446.26 669.16,-381.89"/>
<polygon fill="#757575" stroke="#757575" points="672.64,-382.36 669.97,-372.1 665.66,-381.78 672.64,-382.36"/>
</g>
<!-- history.js -->
<g id="node7" class="node">
<title>history.js</title>
<path fill="none" stroke="#c6c5fe" d="M150.58,-511.34C150.58,-511.34 97.92,-511.34 97.92,-511.34 93.96,-511.34 90,-507.38 90,-503.42 90,-503.42 90,-495.51 90,-495.51 90,-491.55 93.96,-487.59 97.92,-487.59 97.92,-487.59 150.58,-487.59 150.58,-487.59 154.54,-487.59 158.5,-491.55 158.5,-495.51 158.5,-495.51 158.5,-503.42 158.5,-503.42 158.5,-507.38 154.54,-511.34 150.58,-511.34"/>
<text xml:space="preserve" text-anchor="middle" x="124.25" y="-494.04" font-family="Arial" font-size="14.00" fill="#c6c5fe">history.js</text>
</g>
<!-- app.js&#45;&gt;history.js -->
<g id="edge5" class="edge">
<title>app.js&#45;&gt;history.js</title>
<path fill="none" stroke="#757575" d="M54.28,-499.47C61.69,-499.47 69.97,-499.47 78.15,-499.47"/>
<polygon fill="#757575" stroke="#757575" points="78.03,-502.97 88.03,-499.47 78.03,-495.97 78.03,-502.97"/>
</g>
<!-- home.js -->
<g id="node8" class="node">
<title>home.js</title>
<path fill="none" stroke="#c6c5fe" d="M422.21,-668.34C422.21,-668.34 374.04,-668.34 374.04,-668.34 370.08,-668.34 366.12,-664.38 366.12,-660.42 366.12,-660.42 366.12,-652.51 366.12,-652.51 366.12,-648.55 370.08,-644.59 374.04,-644.59 374.04,-644.59 422.21,-644.59 422.21,-644.59 426.17,-644.59 430.12,-648.55 430.12,-652.51 430.12,-652.51 430.12,-660.42 430.12,-660.42 430.12,-664.38 426.17,-668.34 422.21,-668.34"/>
<text xml:space="preserve" text-anchor="middle" x="398.12" y="-651.04" font-family="Arial" font-size="14.00" fill="#c6c5fe">home.js</text>
</g>
<!-- app.js&#45;&gt;home.js -->
<g id="edge6" class="edge">
<title>app.js&#45;&gt;home.js</title>
<path fill="none" stroke="#757575" d="M38.58,-511.79C62.91,-539.17 126.01,-604.88 194.5,-633.47 246.61,-655.21 312.45,-658.79 354.67,-658.4"/>
<polygon fill="#757575" stroke="#757575" points="354.48,-661.9 364.41,-658.22 354.35,-654.9 354.48,-661.9"/>
</g>
<!-- index.js -->
<g id="node9" class="node">
<title>index.js</title>
<path fill="none" stroke="#c6c5fe" d="M147.21,-288.34C147.21,-288.34 101.29,-288.34 101.29,-288.34 97.33,-288.34 93.38,-284.38 93.38,-280.42 93.38,-280.42 93.38,-272.51 93.38,-272.51 93.38,-268.55 97.33,-264.59 101.29,-264.59 101.29,-264.59 147.21,-264.59 147.21,-264.59 151.17,-264.59 155.12,-268.55 155.12,-272.51 155.12,-272.51 155.12,-280.42 155.12,-280.42 155.12,-284.38 151.17,-288.34 147.21,-288.34"/>
<text xml:space="preserve" text-anchor="middle" x="124.25" y="-271.04" font-family="Arial" font-size="14.00" fill="#c6c5fe">index.js</text>
</g>
<!-- app.js&#45;&gt;index.js -->
<g id="edge7" class="edge">
<title>app.js&#45;&gt;index.js</title>
<path fill="none" stroke="#757575" d="M33.26,-487.16C48.61,-451.22 93.55,-346 113.51,-299.28"/>
<polygon fill="#757575" stroke="#757575" points="116.71,-300.7 117.41,-290.13 110.27,-297.95 116.71,-300.7"/>
</g>
<!-- toast.js -->
<g id="node10" class="node">
<title>toast.js</title>
<path fill="none" stroke="#c6c5fe" d="M569.83,-31.34C569.83,-31.34 526.92,-31.34 526.92,-31.34 522.96,-31.34 519,-27.38 519,-23.42 519,-23.42 519,-15.51 519,-15.51 519,-11.55 522.96,-7.59 526.92,-7.59 526.92,-7.59 569.83,-7.59 569.83,-7.59 573.79,-7.59 577.75,-11.55 577.75,-15.51 577.75,-15.51 577.75,-23.42 577.75,-23.42 577.75,-27.38 573.79,-31.34 569.83,-31.34"/>
<text xml:space="preserve" text-anchor="middle" x="548.38" y="-14.04" font-family="Arial" font-size="14.00" fill="#c6c5fe">toast.js</text>
</g>
<!-- app.js&#45;&gt;toast.js -->
<g id="edge9" class="edge">
<title>app.js&#45;&gt;toast.js</title>
<path fill="none" stroke="#757575" d="M27.88,-487.49C27.98,-427.05 37.35,-154.29 194.5,-48.47 291.1,16.58 437.98,1.24 507.82,-11.14"/>
<polygon fill="#757575" stroke="#757575" points="506.79,-14.51 517.26,-12.89 508.06,-7.62 506.79,-14.51"/>
</g>
<!-- history.js&#45;&gt;button.js -->
<g id="edge20" class="edge">
<title>history.js&#45;&gt;button.js</title>
<path fill="none" stroke="#757575" d="M158.61,-511.75C169.85,-515.3 182.57,-518.7 194.5,-520.47 310.7,-537.7 350.21,-536.96 456.75,-487.47 483.62,-474.98 509.92,-453.31 527.2,-437.38"/>
<polygon fill="#757575" stroke="#757575" points="529.41,-440.11 534.27,-430.69 524.6,-435.02 529.41,-440.11"/>
</g>
<!-- history.js&#45;&gt;card.js -->
<g id="edge21" class="edge">
<title>history.js&#45;&gt;card.js</title>
<path fill="none" stroke="#757575" d="M158.99,-489.29C207.12,-474.63 291.09,-448.44 303.5,-440.47 336.61,-419.17 365.86,-383.5 382.51,-360.74"/>
<polygon fill="#757575" stroke="#757575" points="385.21,-362.98 388.17,-352.81 379.52,-358.91 385.21,-362.98"/>
</g>
<!-- history.js&#45;&gt;styles.js -->
<g id="edge25" class="edge">
<title>history.js&#45;&gt;styles.js</title>
<path fill="none" stroke="#757575" d="M131.64,-511.53C144.95,-536.16 175.97,-590.7 194.5,-600.47 237.36,-623.05 255.73,-608.5 303.5,-600.47 442.87,-577.03 498.31,-590.29 604,-496.47 638.99,-465.4 657.51,-411.98 665.69,-381.52"/>
<polygon fill="#757575" stroke="#757575" points="668.99,-382.73 668.04,-372.18 662.2,-381.02 668.99,-382.73"/>
</g>
<!-- board.js -->
<g id="node14" class="node">
<title>board.js</title>
<path fill="none" stroke="#c6c5fe" d="M273.08,-347.34C273.08,-347.34 224.92,-347.34 224.92,-347.34 220.96,-347.34 217,-343.38 217,-339.42 217,-339.42 217,-331.51 217,-331.51 217,-327.55 220.96,-323.59 224.92,-323.59 224.92,-323.59 273.08,-323.59 273.08,-323.59 277.04,-323.59 281,-327.55 281,-331.51 281,-331.51 281,-339.42 281,-339.42 281,-343.38 277.04,-347.34 273.08,-347.34"/>
<text xml:space="preserve" text-anchor="middle" x="249" y="-330.04" font-family="Arial" font-size="14.00" fill="#c6c5fe">board.js</text>
</g>
<!-- history.js&#45;&gt;board.js -->
<g id="edge19" class="edge">
<title>history.js&#45;&gt;board.js</title>
<path fill="none" stroke="#757575" d="M127.93,-487.31C134.52,-460.14 154.02,-393.95 194.5,-356.47 198,-353.22 202.06,-350.46 206.35,-348.11"/>
<polygon fill="#757575" stroke="#757575" points="207.64,-351.37 215.24,-343.98 204.69,-345.02 207.64,-351.37"/>
</g>
<!-- game&#45;layout.js -->
<g id="node15" class="node">
<title>game&#45;layout.js</title>
<path fill="none" stroke="#cfffac" d="M293.33,-431.34C293.33,-431.34 204.67,-431.34 204.67,-431.34 200.71,-431.34 196.75,-427.38 196.75,-423.42 196.75,-423.42 196.75,-415.51 196.75,-415.51 196.75,-411.55 200.71,-407.59 204.67,-407.59 204.67,-407.59 293.33,-407.59 293.33,-407.59 297.29,-407.59 301.25,-411.55 301.25,-415.51 301.25,-415.51 301.25,-423.42 301.25,-423.42 301.25,-427.38 297.29,-431.34 293.33,-431.34"/>
<text xml:space="preserve" text-anchor="middle" x="249" y="-414.04" font-family="Arial" font-size="14.00" fill="#cfffac">game&#45;layout.js</text>
</g>
<!-- history.js&#45;&gt;game&#45;layout.js -->
<g id="edge22" class="edge">
<title>history.js&#45;&gt;game&#45;layout.js</title>
<path fill="none" stroke="#757575" d="M139.2,-487.16C152.74,-475.57 174.19,-458.13 194.5,-445.47 199.36,-442.44 204.62,-439.5 209.89,-436.76"/>
<polygon fill="#757575" stroke="#757575" points="211.18,-440.03 218.56,-432.43 208.05,-433.76 211.18,-440.03"/>
</g>
<!-- history&#45;styles.js -->
<g id="node16" class="node">
<title>history&#45;styles.js</title>
<path fill="none" stroke="#cfffac" d="M295.21,-591.34C295.21,-591.34 202.79,-591.34 202.79,-591.34 198.83,-591.34 194.88,-587.38 194.88,-583.42 194.88,-583.42 194.88,-575.51 194.88,-575.51 194.88,-571.55 198.83,-567.59 202.79,-567.59 202.79,-567.59 295.21,-567.59 295.21,-567.59 299.17,-567.59 303.12,-571.55 303.12,-575.51 303.12,-575.51 303.12,-583.42 303.12,-583.42 303.12,-587.38 299.17,-591.34 295.21,-591.34"/>
<text xml:space="preserve" text-anchor="middle" x="249" y="-574.04" font-family="Arial" font-size="14.00" fill="#cfffac">history&#45;styles.js</text>
</g>
<!-- history.js&#45;&gt;history&#45;styles.js -->
<g id="edge23" class="edge">
<title>history.js&#45;&gt;history&#45;styles.js</title>
<path fill="none" stroke="#757575" d="M139.2,-511.77C152.74,-523.36 174.19,-540.8 194.5,-553.47 199.36,-556.49 204.62,-559.43 209.89,-562.17"/>
<polygon fill="#757575" stroke="#757575" points="208.05,-565.17 218.56,-566.5 211.18,-558.9 208.05,-565.17"/>
</g>
<!-- seat.js -->
<g id="node17" class="node">
<title>seat.js</title>
<path fill="none" stroke="#c6c5fe" d="M268.58,-511.34C268.58,-511.34 229.42,-511.34 229.42,-511.34 225.46,-511.34 221.5,-507.38 221.5,-503.42 221.5,-503.42 221.5,-495.51 221.5,-495.51 221.5,-491.55 225.46,-487.59 229.42,-487.59 229.42,-487.59 268.58,-487.59 268.58,-487.59 272.54,-487.59 276.5,-491.55 276.5,-495.51 276.5,-495.51 276.5,-503.42 276.5,-503.42 276.5,-507.38 272.54,-511.34 268.58,-511.34"/>
<text xml:space="preserve" text-anchor="middle" x="249" y="-494.04" font-family="Arial" font-size="14.00" fill="#c6c5fe">seat.js</text>
</g>
<!-- history.js&#45;&gt;seat.js -->
<g id="edge24" class="edge">
<title>history.js&#45;&gt;seat.js</title>
<path fill="none" stroke="#757575" d="M158.79,-499.47C174.56,-499.47 193.43,-499.47 209.75,-499.47"/>
<polygon fill="#757575" stroke="#757575" points="209.59,-502.97 219.59,-499.47 209.59,-495.97 209.59,-502.97"/>
</g>
<!-- home.js&#45;&gt;button.js -->
<g id="edge26" class="edge">
<title>home.js&#45;&gt;button.js</title>
<path fill="none" stroke="#757575" d="M406.68,-644.28C430.37,-606.09 503.44,-488.3 533.86,-439.25"/>
<polygon fill="#757575" stroke="#757575" points="536.74,-441.25 539.04,-430.91 530.79,-437.56 536.74,-441.25"/>
</g>
<!-- home.js&#45;&gt;styles.js -->
<g id="edge27" class="edge">
<title>home.js&#45;&gt;styles.js</title>
<path fill="none" stroke="#757575" d="M430.57,-662.41C475.01,-668.86 556.08,-673.16 604,-630.47 641.38,-597.17 661.97,-441.54 668.6,-381.85"/>
<polygon fill="#757575" stroke="#757575" points="672.05,-382.47 669.64,-372.15 665.09,-381.72 672.05,-382.47"/>
</g>
<!-- index.js&#45;&gt;action&#45;panel.js -->
<g id="edge28" class="edge">
<title>index.js&#45;&gt;action&#45;panel.js</title>
<path fill="none" stroke="#757575" d="M150.98,-264.1C168.66,-255.6 192.37,-244.2 211.93,-234.8"/>
<polygon fill="#757575" stroke="#757575" points="213.44,-237.96 220.94,-230.47 210.41,-231.65 213.44,-237.96"/>
</g>
<!-- index.js&#45;&gt;button.js -->
<g id="edge32" class="edge">
<title>index.js&#45;&gt;button.js</title>
<path fill="none" stroke="#757575" d="M155.5,-273.04C216.76,-267.59 358.02,-262.65 456.75,-318.47 490,-337.26 517.82,-372.57 533.53,-395.54"/>
<polygon fill="#757575" stroke="#757575" points="530.6,-397.46 539.04,-403.86 536.44,-393.59 530.6,-397.46"/>
</g>
<!-- index.js&#45;&gt;card.js -->
<g id="edge33" class="edge">
<title>index.js&#45;&gt;card.js</title>
<path fill="none" stroke="#757575" d="M155.32,-282.39C190.84,-289.5 251.66,-302.03 303.5,-314.47 321.89,-318.88 342.17,-324.23 359.15,-328.85"/>
<polygon fill="#757575" stroke="#757575" points="357.74,-332.1 368.31,-331.37 359.59,-325.35 357.74,-332.1"/>
</g>
<!-- index.js&#45;&gt;styles.js -->
<g id="edge38" class="edge">
<title>index.js&#45;&gt;styles.js</title>
<path fill="none" stroke="#757575" d="M125.47,-264.16C126.82,-229.68 135.89,-131.89 194.5,-89.47 268.24,-36.09 532.53,-22.08 604,-78.47 644.57,-110.47 663.31,-273.42 669.02,-334.92"/>
<polygon fill="#757575" stroke="#757575" points="665.51,-334.96 669.88,-344.61 672.48,-334.33 665.51,-334.96"/>
</g>
<!-- audio.js -->
<g id="node11" class="node">
<title>audio.js</title>
<path fill="none" stroke="#cfffac" d="M272.33,-149.34C272.33,-149.34 225.67,-149.34 225.67,-149.34 221.71,-149.34 217.75,-145.38 217.75,-141.42 217.75,-141.42 217.75,-133.51 217.75,-133.51 217.75,-129.55 221.71,-125.59 225.67,-125.59 225.67,-125.59 272.33,-125.59 272.33,-125.59 276.29,-125.59 280.25,-129.55 280.25,-133.51 280.25,-133.51 280.25,-141.42 280.25,-141.42 280.25,-145.38 276.29,-149.34 272.33,-149.34"/>
<text xml:space="preserve" text-anchor="middle" x="249" y="-132.04" font-family="Arial" font-size="14.00" fill="#cfffac">audio.js</text>
</g>
<!-- index.js&#45;&gt;audio.js -->
<g id="edge29" class="edge">
<title>index.js&#45;&gt;audio.js</title>
<path fill="none" stroke="#757575" d="M129.93,-264.37C139.19,-241.87 161.78,-193.14 194.5,-163.47 198.3,-160.02 202.65,-156.93 207.18,-154.18"/>
<polygon fill="#757575" stroke="#757575" points="208.79,-157.29 215.93,-149.46 205.47,-151.13 208.79,-157.29"/>
</g>
<!-- bet&#45;collection.js -->
<g id="node12" class="node">
<title>bet&#45;collection.js</title>
<path fill="none" stroke="#c6c5fe" d="M295.58,-389.34C295.58,-389.34 202.42,-389.34 202.42,-389.34 198.46,-389.34 194.5,-385.38 194.5,-381.42 194.5,-381.42 194.5,-373.51 194.5,-373.51 194.5,-369.55 198.46,-365.59 202.42,-365.59 202.42,-365.59 295.58,-365.59 295.58,-365.59 299.54,-365.59 303.5,-369.55 303.5,-373.51 303.5,-373.51 303.5,-381.42 303.5,-381.42 303.5,-385.38 299.54,-389.34 295.58,-389.34"/>
<text xml:space="preserve" text-anchor="middle" x="249" y="-372.04" font-family="Arial" font-size="14.00" fill="#c6c5fe">bet&#45;collection.js</text>
</g>
<!-- index.js&#45;&gt;bet&#45;collection.js -->
<g id="edge30" class="edge">
<title>index.js&#45;&gt;bet&#45;collection.js</title>
<path fill="none" stroke="#757575" d="M132.99,-288.67C144.49,-305.93 167.66,-337.48 194.5,-356.47 196.27,-357.72 198.13,-358.91 200.04,-360.04"/>
<polygon fill="#757575" stroke="#757575" points="198.14,-363 208.63,-364.51 201.37,-356.79 198.14,-363"/>
</g>
<!-- index.js&#45;&gt;board.js -->
<g id="edge31" class="edge">
<title>index.js&#45;&gt;board.js</title>
<path fill="none" stroke="#757575" d="M150.98,-288.83C168.66,-297.33 192.37,-308.73 211.93,-318.13"/>
<polygon fill="#757575" stroke="#757575" points="210.41,-321.28 220.94,-322.46 213.44,-314.97 210.41,-321.28"/>
</g>
<!-- index.js&#45;&gt;game&#45;layout.js -->
<g id="edge34" class="edge">
<title>index.js&#45;&gt;game&#45;layout.js</title>
<path fill="none" stroke="#757575" d="M129.06,-288.65C137.22,-312.85 158.62,-367.35 194.5,-398.47 195.6,-399.42 196.75,-400.34 197.94,-401.21"/>
<polygon fill="#757575" stroke="#757575" points="196.05,-404.16 206.4,-406.4 199.71,-398.19 196.05,-404.16"/>
</g>
<!-- index.js&#45;&gt;seat.js -->
<g id="edge37" class="edge">
<title>index.js&#45;&gt;seat.js</title>
<path fill="none" stroke="#757575" d="M128.84,-288.67C137.45,-316.86 161.08,-388.1 194.5,-440.47 203.54,-454.63 216.05,-468.64 226.7,-479.45"/>
<polygon fill="#757575" stroke="#757575" points="224.09,-481.79 233.67,-486.32 229,-476.8 224.09,-481.79"/>
</g>
<!-- modal.js -->
<g id="node18" class="node">
<title>modal.js</title>
<path fill="none" stroke="#c6c5fe" d="M573.96,-153.34C573.96,-153.34 522.79,-153.34 522.79,-153.34 518.83,-153.34 514.88,-149.38 514.88,-145.42 514.88,-145.42 514.88,-137.51 514.88,-137.51 514.88,-133.55 518.83,-129.59 522.79,-129.59 522.79,-129.59 573.96,-129.59 573.96,-129.59 577.92,-129.59 581.88,-133.55 581.88,-137.51 581.88,-137.51 581.88,-145.42 581.88,-145.42 581.88,-149.38 577.92,-153.34 573.96,-153.34"/>
<text xml:space="preserve" text-anchor="middle" x="548.38" y="-136.04" font-family="Arial" font-size="14.00" fill="#c6c5fe">modal.js</text>
</g>
<!-- index.js&#45;&gt;modal.js -->
<g id="edge35" class="edge">
<title>index.js&#45;&gt;modal.js</title>
<path fill="none" stroke="#757575" d="M132.2,-264.2C143.05,-246.26 165.77,-213.2 194.5,-196.47 246.2,-166.36 420.45,-150.39 503.13,-144.35"/>
<polygon fill="#757575" stroke="#757575" points="503.17,-147.86 512.9,-143.66 502.67,-140.87 503.17,-147.86"/>
</g>
<!-- ranking&#45;panel.js -->
<g id="node19" class="node">
<title>ranking&#45;panel.js</title>
<path fill="none" stroke="#c6c5fe" d="M596.08,-111.34C596.08,-111.34 500.67,-111.34 500.67,-111.34 496.71,-111.34 492.75,-107.38 492.75,-103.42 492.75,-103.42 492.75,-95.51 492.75,-95.51 492.75,-91.55 496.71,-87.59 500.67,-87.59 500.67,-87.59 596.08,-87.59 596.08,-87.59 600.04,-87.59 604,-91.55 604,-95.51 604,-95.51 604,-103.42 604,-103.42 604,-107.38 600.04,-111.34 596.08,-111.34"/>
<text xml:space="preserve" text-anchor="middle" x="548.38" y="-94.04" font-family="Arial" font-size="14.00" fill="#c6c5fe">ranking&#45;panel.js</text>
</g>
<!-- index.js&#45;&gt;ranking&#45;panel.js -->
<g id="edge36" class="edge">
<title>index.js&#45;&gt;ranking&#45;panel.js</title>
<path fill="none" stroke="#757575" d="M126.32,-264.15C129.76,-233.13 143.47,-151.77 194.5,-116.47 239.32,-85.46 391.96,-89.31 481.13,-94.56"/>
<polygon fill="#757575" stroke="#757575" points="480.77,-98.05 490.96,-95.17 481.2,-91.06 480.77,-98.05"/>
</g>
<!-- toast.js&#45;&gt;styles.js -->
<g id="edge45" class="edge">
<title>toast.js&#45;&gt;styles.js</title>
<path fill="none" stroke="#757575" d="M577.97,-27.36C587.53,-31.34 597.42,-37.14 604,-45.47 639.93,-90.94 661.79,-270.12 668.65,-334.92"/>
<polygon fill="#757575" stroke="#757575" points="665.16,-335.19 669.67,-344.77 672.13,-334.47 665.16,-335.19"/>
</g>
<!-- chips.js -->
<g id="node13" class="node">
<title>chips.js</title>
<path fill="none" stroke="#c6c5fe" d="M420.71,-450.34C420.71,-450.34 375.54,-450.34 375.54,-450.34 371.58,-450.34 367.62,-446.38 367.62,-442.42 367.62,-442.42 367.62,-434.51 367.62,-434.51 367.62,-430.55 371.58,-426.59 375.54,-426.59 375.54,-426.59 420.71,-426.59 420.71,-426.59 424.67,-426.59 428.62,-430.55 428.62,-434.51 428.62,-434.51 428.62,-442.42 428.62,-442.42 428.62,-446.38 424.67,-450.34 420.71,-450.34"/>
<text xml:space="preserve" text-anchor="middle" x="398.12" y="-433.04" font-family="Arial" font-size="14.00" fill="#c6c5fe">chips.js</text>
</g>
<!-- bet&#45;collection.js&#45;&gt;chips.js -->
<g id="edge10" class="edge">
<title>bet&#45;collection.js&#45;&gt;chips.js</title>
<path fill="none" stroke="#757575" d="M281.75,-389.75C288.92,-392.57 296.48,-395.59 303.5,-398.47 321.61,-405.89 341.57,-414.37 358.4,-421.61"/>
<polygon fill="#757575" stroke="#757575" points="356.99,-424.82 367.56,-425.57 359.76,-418.39 356.99,-424.82"/>
</g>
<!-- chips.js&#45;&gt;styles.js -->
<g id="edge16" class="edge">
<title>chips.js&#45;&gt;styles.js</title>
<path fill="none" stroke="#757575" d="M428.97,-446C470.42,-454.84 546.79,-465.17 604,-438.47 629.37,-426.62 648.52,-399.93 659.72,-380.62"/>
<polygon fill="#757575" stroke="#757575" points="662.78,-382.32 664.52,-371.87 656.65,-378.96 662.78,-382.32"/>
</g>
<!-- board.js&#45;&gt;card.js -->
<g id="edge11" class="edge">
<title>board.js&#45;&gt;card.js</title>
<path fill="none" stroke="#757575" d="M281.2,-336.31C303.82,-336.93 334.54,-337.76 358.67,-338.42"/>
<polygon fill="#757575" stroke="#757575" points="358.32,-341.91 368.41,-338.68 358.51,-334.91 358.32,-341.91"/>
</g>
<!-- board.js&#45;&gt;styles.js -->
<g id="edge13" class="edge">
<title>board.js&#45;&gt;styles.js</title>
<path fill="none" stroke="#757575" d="M281.47,-346.36C298.44,-351.69 319.87,-357.58 339.5,-360.47 442.42,-375.6 565.26,-368.36 628.59,-362.8"/>
<polygon fill="#757575" stroke="#757575" points="628.55,-366.32 638.19,-361.93 627.92,-359.35 628.55,-366.32"/>
</g>
<!-- board.js&#45;&gt;chips.js -->
<g id="edge12" class="edge">
<title>board.js&#45;&gt;chips.js</title>
<path fill="none" stroke="#757575" d="M281.38,-345.22C288.94,-348.25 296.77,-351.99 303.5,-356.47 322.61,-369.16 322.42,-378.15 339.5,-393.47 349.45,-402.39 360.97,-411.59 371.08,-419.33"/>
<polygon fill="#757575" stroke="#757575" points="368.95,-422.1 379.04,-425.33 373.16,-416.51 368.95,-422.1"/>
</g>
<!-- seat.js&#45;&gt;button.js -->
<g id="edge41" class="edge">
<title>seat.js&#45;&gt;button.js</title>
<path fill="none" stroke="#757575" d="M276.96,-496.37C316.93,-491.32 393.96,-479.76 456.75,-459.47 476.7,-453.02 498.02,-443.29 514.97,-434.82"/>
<polygon fill="#757575" stroke="#757575" points="516.24,-438.1 523.55,-430.44 513.06,-431.87 516.24,-438.1"/>
</g>
<!-- seat.js&#45;&gt;card.js -->
<g id="edge42" class="edge">
<title>seat.js&#45;&gt;card.js</title>
<path fill="none" stroke="#757575" d="M276.78,-489.9C285.92,-485.79 295.78,-480.32 303.5,-473.47 325.63,-453.82 322.7,-441.82 339.5,-417.47 353.04,-397.84 369.23,-376.06 381,-360.51"/>
<polygon fill="#757575" stroke="#757575" points="383.51,-363 386.78,-352.92 377.94,-358.76 383.51,-363"/>
</g>
<!-- seat.js&#45;&gt;styles.js -->
<g id="edge44" class="edge">
<title>seat.js&#45;&gt;styles.js</title>
<path fill="none" stroke="#757575" d="M276.71,-504.3C339.66,-514.19 499.86,-530.35 604,-461.47 633.2,-442.15 652.5,-405.26 662.59,-381.27"/>
<polygon fill="#757575" stroke="#757575" points="665.81,-382.66 666.25,-372.07 659.3,-380.07 665.81,-382.66"/>
</g>
<!-- seat.js&#45;&gt;chips.js -->
<g id="edge43" class="edge">
<title>seat.js&#45;&gt;chips.js</title>
<path fill="none" stroke="#757575" d="M276.98,-488.28C299.41,-478.98 331.66,-465.61 357.1,-455.06"/>
<polygon fill="#757575" stroke="#757575" points="358.24,-458.38 366.13,-451.31 355.56,-451.91 358.24,-458.38"/>
</g>
<!-- modal.js&#45;&gt;styles.js -->
<g id="edge39" class="edge">
<title>modal.js&#45;&gt;styles.js</title>
<path fill="none" stroke="#757575" d="M582.23,-152.02C590.2,-155.85 598.1,-160.9 604,-167.47 647.87,-216.29 663.39,-295.55 668.58,-334.84"/>
<polygon fill="#757575" stroke="#757575" points="665.08,-335.08 669.74,-344.6 672.03,-334.25 665.08,-335.08"/>
</g>
<!-- ranking&#45;panel.js&#45;&gt;styles.js -->
<g id="edge40" class="edge">
<title>ranking&#45;panel.js&#45;&gt;styles.js</title>
<path fill="none" stroke="#757575" d="M592.99,-111.7C597.07,-114.12 600.85,-117.01 604,-120.47 660.42,-182.36 669.76,-288.16 671.01,-334.98"/>
<polygon fill="#757575" stroke="#757575" points="667.5,-334.84 671.15,-344.78 674.5,-334.73 667.5,-334.84"/>
</g>
</g>
</svg>
